<?xml version="1.0" encoding="UTF-8" standalone="no"?><svg xmlns="http://www.w3.org/2000/svg" xmlns:xlink="http://www.w3.org/1999/xlink" contentScriptType="application/ecmascript" contentStyleType="text/css" height="579px" preserveAspectRatio="none" style="width:873px;height:579px;background:#777777;" version="1.1" viewBox="0 0 873 579" width="873px" zoomAndPan="magnify"><defs><filter height="300%" id="f1kmxl3rz9mosb" width="300%" x="-1" y="-1"><feGaussianBlur result="blurOut" stdDeviation="2.0"/><feColorMatrix in="blurOut" result="blurOut2" type="matrix" values="0 0 0 0 0 0 0 0 0 0 0 0 0 0 0 0 0 0 .4 0"/><feOffset dx="4.0" dy="4.0" in="blurOut2" result="blurOut3"/><feBlend in="SourceGraphic" in2="blurOut3" mode="normal"/></filter></defs><g><!--MD5=[7319493c5b4bcec228f7f8a16be441b1]
cluster vtkReferenceManager.cls--><polygon fill="#777777" filter="url(#f1kmxl3rz9mosb)" points="16,6,16,572,856,572,856,16,846,6,16,6" style="stroke:#000000;stroke-width:1.5;"/><path d="M846,6 L846,16 L856,16 " fill="#777777" style="stroke:#000000;stroke-width:1.5;"/><text fill="#000000" font-family="sans-serif" font-size="14" font-weight="bold" lengthAdjust="spacing" textLength="177" x="347.5" y="21.5352">vtkReferenceManager.cls</text><!--MD5=[abc401845c2401b94c513761661fec0a]
class Class_Terminate--><rect codeLine="4" fill="#1E90FF" filter="url(#f1kmxl3rz9mosb)" height="54.9551" id="Class_Terminate" style="stroke:#1B1B1B;stroke-width:1.5;" width="121" x="539.5" y="41"/><ellipse cx="551.5" cy="54" fill="#1A66C2" rx="8" ry="8" style="stroke:#1B1B1B;stroke-width:1.0;"/><path d="M551.6353,58.4058 Q550.7437,58.4058 549.989,58.1426 Q549.2344,57.8794 548.6919,57.3584 Q548.1494,56.8374 547.8513,56.0586 Q547.5532,55.2798 547.5532,54.2593 Q547.5532,53.3086 547.8379,52.5352 Q548.1226,51.7617 548.665,51.2085 Q549.186,50.6768 549.9568,50.3867 Q550.7275,50.0967 551.6406,50.0967 Q552.1455,50.0967 552.551,50.1531 Q552.9565,50.2095 553.3003,50.3008 Q553.6602,50.4028 553.9529,50.5291 Q554.2456,50.6553 554.4658,50.7627 L554.4658,52.7017 L554.2295,52.7017 Q554.0791,52.5728 553.8508,52.3955 Q553.6226,52.2183 553.3325,52.0464 Q553.0371,51.8745 552.6934,51.7563 Q552.3496,51.6382 551.9575,51.6382 Q551.5225,51.6382 551.1304,51.7751 Q550.7383,51.9121 550.4053,52.229 Q550.0884,52.5352 549.8923,53.04 Q549.6963,53.5449 549.6963,54.2646 Q549.6963,55.0166 549.9084,55.5215 Q550.1206,56.0264 550.4429,56.3164 Q550.7705,56.6118 551.1733,56.738 Q551.5762,56.8643 551.9683,56.8643 Q552.3442,56.8643 552.7122,56.7515 Q553.0801,56.6387 553.3916,56.4453 Q553.6548,56.2896 553.8804,56.1123 Q554.106,55.9351 554.251,55.8062 L554.4658,55.8062 L554.4658,57.7183 Q554.165,57.8525 553.8911,57.9707 Q553.6172,58.0889 553.3164,58.1748 Q552.9243,58.2876 552.5806,58.3467 Q552.2368,58.4058 551.6353,58.4058 Z " fill="#000000"/><text fill="#FFFFFF" font-family="Verdana" font-size="11" lengthAdjust="spacing" textLength="95" x="562.5" y="58.3748">Class_Terminate</text><line style="stroke:#1B1B1B;stroke-width:1.5;" x1="540.5" x2="659.5" y1="67" y2="67"/><rect fill="none" height="6" style="stroke:#C82930;stroke-width:1.0;" width="6" x="547.5" y="75"/><text fill="#AAAAAA" font-family="sans-serif" font-size="11" lengthAdjust="spacing" textLength="20" x="556.5" y="81.6348">sub</text><line style="stroke:#1B1B1B;stroke-width:1.5;" x1="540.5" x2="659.5" y1="87.9551" y2="87.9551"/><!--MD5=[60c49cd0a08886b4937565161e944bd5]
class init--><rect codeLine="7" fill="#1E90FF" filter="url(#f1kmxl3rz9mosb)" height="54.9551" id="init" style="stroke:#1B1B1B;stroke-width:1.5;" width="43" x="248.5" y="41"/><ellipse cx="260.5" cy="54" fill="#1A66C2" rx="8" ry="8" style="stroke:#1B1B1B;stroke-width:1.0;"/><path d="M260.6353,58.4058 Q259.7437,58.4058 258.989,58.1426 Q258.2344,57.8794 257.6919,57.3584 Q257.1494,56.8374 256.8513,56.0586 Q256.5532,55.2798 256.5532,54.2593 Q256.5532,53.3086 256.8379,52.5352 Q257.1226,51.7617 257.665,51.2085 Q258.186,50.6768 258.9568,50.3867 Q259.7275,50.0967 260.6406,50.0967 Q261.1455,50.0967 261.551,50.1531 Q261.9565,50.2095 262.3003,50.3008 Q262.6602,50.4028 262.9529,50.5291 Q263.2456,50.6553 263.4658,50.7627 L263.4658,52.7017 L263.2295,52.7017 Q263.0791,52.5728 262.8508,52.3955 Q262.6226,52.2183 262.3325,52.0464 Q262.0371,51.8745 261.6934,51.7563 Q261.3496,51.6382 260.9575,51.6382 Q260.5225,51.6382 260.1304,51.7751 Q259.7383,51.9121 259.4053,52.229 Q259.0884,52.5352 258.8923,53.04 Q258.6963,53.5449 258.6963,54.2646 Q258.6963,55.0166 258.9084,55.5215 Q259.1206,56.0264 259.4429,56.3164 Q259.7705,56.6118 260.1733,56.738 Q260.5762,56.8643 260.9683,56.8643 Q261.3442,56.8643 261.7122,56.7515 Q262.0801,56.6387 262.3916,56.4453 Q262.6548,56.2896 262.8804,56.1123 Q263.106,55.9351 263.251,55.8062 L263.4658,55.8062 L263.4658,57.7183 Q263.165,57.8525 262.8911,57.9707 Q262.6172,58.0889 262.3164,58.1748 Q261.9243,58.2876 261.5806,58.3467 Q261.2368,58.4058 260.6353,58.4058 Z " fill="#000000"/><text fill="#FFFFFF" font-family="Verdana" font-size="11" lengthAdjust="spacing" textLength="17" x="271.5" y="58.3748">init</text><line style="stroke:#1B1B1B;stroke-width:1.5;" x1="249.5" x2="290.5" y1="67" y2="67"/><rect fill="none" height="6" style="stroke:#C82930;stroke-width:1.0;" width="6" x="256.5" y="75"/><text fill="#AAAAAA" font-family="sans-serif" font-size="11" lengthAdjust="spacing" textLength="20" x="265.5" y="81.6348">sub</text><line style="stroke:#1B1B1B;stroke-width:1.5;" x1="249.5" x2="290.5" y1="87.9551" y2="87.9551"/><!--MD5=[af177947976f6252dea9cf023146881e]
class references--><rect codeLine="54" fill="#1E90FF" filter="url(#f1kmxl3rz9mosb)" height="54.9551" id="references" style="stroke:#1B1B1B;stroke-width:1.5;" width="87" x="234.5" y="386"/><ellipse cx="246.5" cy="399" fill="#1A66C2" rx="8" ry="8" style="stroke:#1B1B1B;stroke-width:1.0;"/><path d="M246.6353,403.4058 Q245.7437,403.4058 244.989,403.1426 Q244.2344,402.8794 243.6919,402.3584 Q243.1494,401.8374 242.8513,401.0586 Q242.5532,400.2798 242.5532,399.2593 Q242.5532,398.3086 242.8379,397.5352 Q243.1226,396.7617 243.665,396.2085 Q244.186,395.6768 244.9568,395.3867 Q245.7275,395.0967 246.6406,395.0967 Q247.1455,395.0967 247.551,395.1531 Q247.9565,395.2095 248.3003,395.3008 Q248.6602,395.4028 248.9529,395.5291 Q249.2456,395.6553 249.4658,395.7627 L249.4658,397.7017 L249.2295,397.7017 Q249.0791,397.5728 248.8508,397.3955 Q248.6226,397.2183 248.3325,397.0464 Q248.0371,396.8745 247.6934,396.7563 Q247.3496,396.6382 246.9575,396.6382 Q246.5225,396.6382 246.1304,396.7751 Q245.7383,396.9121 245.4053,397.229 Q245.0884,397.5352 244.8923,398.04 Q244.6963,398.5449 244.6963,399.2646 Q244.6963,400.0166 244.9084,400.5215 Q245.1206,401.0264 245.4429,401.3164 Q245.7705,401.6118 246.1733,401.738 Q246.5762,401.8643 246.9683,401.8643 Q247.3442,401.8643 247.7122,401.7515 Q248.0801,401.6387 248.3916,401.4453 Q248.6548,401.2896 248.8804,401.1123 Q249.106,400.9351 249.251,400.8062 L249.4658,400.8062 L249.4658,402.7183 Q249.165,402.8525 248.8911,402.9707 Q248.6172,403.0889 248.3164,403.1748 Q247.9243,403.2876 247.5806,403.3467 Q247.2368,403.4058 246.6353,403.4058 Z " fill="#000000"/><text fill="#FFFFFF" font-family="Verdana" font-size="11" lengthAdjust="spacing" textLength="61" x="257.5" y="403.3748">references</text><line style="stroke:#1B1B1B;stroke-width:1.5;" x1="235.5" x2="320.5" y1="412" y2="412"/><rect fill="none" height="6" style="stroke:#C82930;stroke-width:1.0;" width="6" x="242.5" y="420"/><text fill="#AAAAAA" font-family="sans-serif" font-size="11" lengthAdjust="spacing" textLength="45" x="251.5" y="426.6348">function</text><line style="stroke:#1B1B1B;stroke-width:1.5;" x1="235.5" x2="320.5" y1="432.9551" y2="432.9551"/><!--MD5=[b48058d54708c3e9caf9665bc227c8b6]
class setReferenceSheet--><rect codeLine="13" fill="#1E90FF" filter="url(#f1kmxl3rz9mosb)" height="54.9551" id="setReferenceSheet" style="stroke:#1B1B1B;stroke-width:1.5;" width="134" x="332" y="156"/><ellipse cx="344" cy="169" fill="#1A66C2" rx="8" ry="8" style="stroke:#1B1B1B;stroke-width:1.0;"/><path d="M344.1353,173.4058 Q343.2437,173.4058 342.489,173.1426 Q341.7344,172.8794 341.1919,172.3584 Q340.6494,171.8374 340.3513,171.0586 Q340.0532,170.2798 340.0532,169.2593 Q340.0532,168.3086 340.3379,167.5352 Q340.6226,166.7617 341.165,166.2085 Q341.686,165.6768 342.4568,165.3867 Q343.2275,165.0967 344.1406,165.0967 Q344.6455,165.0967 345.051,165.1531 Q345.4565,165.2095 345.8003,165.3008 Q346.1602,165.4028 346.4529,165.5291 Q346.7456,165.6553 346.9658,165.7627 L346.9658,167.7017 L346.7295,167.7017 Q346.5791,167.5728 346.3508,167.3955 Q346.1226,167.2183 345.8325,167.0464 Q345.5371,166.8745 345.1934,166.7563 Q344.8496,166.6382 344.4575,166.6382 Q344.0225,166.6382 343.6304,166.7751 Q343.2383,166.9121 342.9053,167.229 Q342.5884,167.5352 342.3923,168.04 Q342.1963,168.5449 342.1963,169.2646 Q342.1963,170.0166 342.4084,170.5215 Q342.6206,171.0264 342.9429,171.3164 Q343.2705,171.6118 343.6733,171.738 Q344.0762,171.8643 344.4683,171.8643 Q344.8442,171.8643 345.2122,171.7515 Q345.5801,171.6387 345.8916,171.4453 Q346.1548,171.2896 346.3804,171.1123 Q346.606,170.9351 346.751,170.8062 L346.9658,170.8062 L346.9658,172.7183 Q346.665,172.8525 346.3911,172.9707 Q346.1172,173.0889 345.8164,173.1748 Q345.4243,173.2876 345.0806,173.3467 Q344.7368,173.4058 344.1353,173.4058 Z " fill="#000000"/><text fill="#FFFFFF" font-family="Verdana" font-size="11" lengthAdjust="spacing" textLength="108" x="355" y="173.3748">setReferenceSheet</text><line style="stroke:#1B1B1B;stroke-width:1.5;" x1="333" x2="465" y1="182" y2="182"/><rect fill="none" height="6" style="stroke:#C82930;stroke-width:1.0;" width="6" x="340" y="190"/><text fill="#AAAAAA" font-family="sans-serif" font-size="11" lengthAdjust="spacing" textLength="20" x="349" y="196.6348">sub</text><line style="stroke:#1B1B1B;stroke-width:1.5;" x1="333" x2="465" y1="202.9551" y2="202.9551"/><!--MD5=[fd0487ffc646c44bb33603512d76884f]
class initializeReferenceSheet--><rect codeLine="22" fill="#1E90FF" filter="url(#f1kmxl3rz9mosb)" height="54.9551" id="initializeReferenceSheet" style="stroke:#1B1B1B;stroke-width:1.5;" width="163" x="343.5" y="271"/><ellipse cx="355.5" cy="284" fill="#1A66C2" rx="8" ry="8" style="stroke:#1B1B1B;stroke-width:1.0;"/><path d="M355.6353,288.4058 Q354.7437,288.4058 353.989,288.1426 Q353.2344,287.8794 352.6919,287.3584 Q352.1494,286.8374 351.8513,286.0586 Q351.5532,285.2798 351.5532,284.2593 Q351.5532,283.3086 351.8379,282.5352 Q352.1226,281.7617 352.665,281.2085 Q353.186,280.6768 353.9568,280.3867 Q354.7275,280.0967 355.6406,280.0967 Q356.1455,280.0967 356.551,280.1531 Q356.9565,280.2095 357.3003,280.3008 Q357.6602,280.4028 357.9529,280.5291 Q358.2456,280.6553 358.4658,280.7627 L358.4658,282.7017 L358.2295,282.7017 Q358.0791,282.5728 357.8508,282.3955 Q357.6226,282.2183 357.3325,282.0464 Q357.0371,281.8745 356.6934,281.7563 Q356.3496,281.6382 355.9575,281.6382 Q355.5225,281.6382 355.1304,281.7751 Q354.7383,281.9121 354.4053,282.229 Q354.0884,282.5352 353.8923,283.04 Q353.6963,283.5449 353.6963,284.2646 Q353.6963,285.0166 353.9084,285.5215 Q354.1206,286.0264 354.4429,286.3164 Q354.7705,286.6118 355.1733,286.738 Q355.5762,286.8643 355.9683,286.8643 Q356.3442,286.8643 356.7122,286.7515 Q357.0801,286.6387 357.3916,286.4453 Q357.6548,286.2896 357.8804,286.1123 Q358.106,285.9351 358.251,285.8062 L358.4658,285.8062 L358.4658,287.7183 Q358.165,287.8525 357.8911,287.9707 Q357.6172,288.0889 357.3164,288.1748 Q356.9243,288.2876 356.5806,288.3467 Q356.2368,288.4058 355.6353,288.4058 Z " fill="#000000"/><text fill="#FFFFFF" font-family="Verdana" font-size="11" lengthAdjust="spacing" textLength="137" x="366.5" y="288.3748">initializeReferenceSheet</text><line style="stroke:#1B1B1B;stroke-width:1.5;" x1="344.5" x2="505.5" y1="297" y2="297"/><rect fill="none" height="6" style="stroke:#C82930;stroke-width:1.0;" width="6" x="351.5" y="305"/><text fill="#AAAAAA" font-family="sans-serif" font-size="11" lengthAdjust="spacing" textLength="20" x="360.5" y="311.6348">sub</text><line style="stroke:#1B1B1B;stroke-width:1.5;" x1="344.5" x2="505.5" y1="317.9551" y2="317.9551"/><!--MD5=[91d86a792cf379b579253b5be569d9bb]
class alignConfigurationCount--><rect codeLine="30" fill="#2E2E2E" filter="url(#f1kmxl3rz9mosb)" height="54.9551" id="alignConfigurationCount" style="stroke:#1B1B1B;stroke-width:1.5;" width="162" x="678" y="386"/><ellipse cx="690" cy="399" fill="#1A66C2" rx="8" ry="8" style="stroke:#1B1B1B;stroke-width:1.0;"/><path d="M690.1353,403.4058 Q689.2437,403.4058 688.489,403.1426 Q687.7344,402.8794 687.1919,402.3584 Q686.6494,401.8374 686.3513,401.0586 Q686.0532,400.2798 686.0532,399.2593 Q686.0532,398.3086 686.3379,397.5352 Q686.6226,396.7617 687.165,396.2085 Q687.686,395.6768 688.4568,395.3867 Q689.2275,395.0967 690.1406,395.0967 Q690.6455,395.0967 691.051,395.1531 Q691.4565,395.2095 691.8003,395.3008 Q692.1602,395.4028 692.4529,395.5291 Q692.7456,395.6553 692.9658,395.7627 L692.9658,397.7017 L692.7295,397.7017 Q692.5791,397.5728 692.3508,397.3955 Q692.1226,397.2183 691.8325,397.0464 Q691.5371,396.8745 691.1934,396.7563 Q690.8496,396.6382 690.4575,396.6382 Q690.0225,396.6382 689.6304,396.7751 Q689.2383,396.9121 688.9053,397.229 Q688.5884,397.5352 688.3923,398.04 Q688.1963,398.5449 688.1963,399.2646 Q688.1963,400.0166 688.4084,400.5215 Q688.6206,401.0264 688.9429,401.3164 Q689.2705,401.6118 689.6733,401.738 Q690.0762,401.8643 690.4683,401.8643 Q690.8442,401.8643 691.2122,401.7515 Q691.5801,401.6387 691.8916,401.4453 Q692.1548,401.2896 692.3804,401.1123 Q692.606,400.9351 692.751,400.8062 L692.9658,400.8062 L692.9658,402.7183 Q692.665,402.8525 692.3911,402.9707 Q692.1172,403.0889 691.8164,403.1748 Q691.4243,403.2876 691.0806,403.3467 Q690.7368,403.4058 690.1353,403.4058 Z " fill="#000000"/><text fill="#FFFFFF" font-family="Verdana" font-size="11" lengthAdjust="spacing" textLength="136" x="701" y="403.3748">alignConfigurationCount</text><line style="stroke:#1B1B1B;stroke-width:1.5;" x1="679" x2="839" y1="412" y2="412"/><rect fill="none" height="6" style="stroke:#C82930;stroke-width:1.0;" width="6" x="686" y="420"/><text fill="#AAAAAA" font-family="sans-serif" font-size="11" lengthAdjust="spacing" textLength="20" x="695" y="426.6348">sub</text><line style="stroke:#1B1B1B;stroke-width:1.5;" x1="679" x2="839" y1="432.9551" y2="432.9551"/><!--MD5=[0e4127ca2ded48b50d563ed4b150482e]
class selfReference--><rect codeLine="19" fill="#2E2E2E" filter="url(#f1kmxl3rz9mosb)" height="54.9551" id="selfReference" style="stroke:#1B1B1B;stroke-width:1.5;" width="104" x="696" y="41"/><ellipse cx="708" cy="54" fill="#1A66C2" rx="8" ry="8" style="stroke:#1B1B1B;stroke-width:1.0;"/><path d="M708.1353,58.4058 Q707.2437,58.4058 706.489,58.1426 Q705.7344,57.8794 705.1919,57.3584 Q704.6494,56.8374 704.3513,56.0586 Q704.0532,55.2798 704.0532,54.2593 Q704.0532,53.3086 704.3379,52.5352 Q704.6226,51.7617 705.165,51.2085 Q705.686,50.6768 706.4568,50.3867 Q707.2275,50.0967 708.1406,50.0967 Q708.6455,50.0967 709.051,50.1531 Q709.4565,50.2095 709.8003,50.3008 Q710.1602,50.4028 710.4529,50.5291 Q710.7456,50.6553 710.9658,50.7627 L710.9658,52.7017 L710.7295,52.7017 Q710.5791,52.5728 710.3508,52.3955 Q710.1226,52.2183 709.8325,52.0464 Q709.5371,51.8745 709.1934,51.7563 Q708.8496,51.6382 708.4575,51.6382 Q708.0225,51.6382 707.6304,51.7751 Q707.2383,51.9121 706.9053,52.229 Q706.5884,52.5352 706.3923,53.04 Q706.1963,53.5449 706.1963,54.2646 Q706.1963,55.0166 706.4084,55.5215 Q706.6206,56.0264 706.9429,56.3164 Q707.2705,56.6118 707.6733,56.738 Q708.0762,56.8643 708.4683,56.8643 Q708.8442,56.8643 709.2122,56.7515 Q709.5801,56.6387 709.8916,56.4453 Q710.1548,56.2896 710.3804,56.1123 Q710.606,55.9351 710.751,55.8062 L710.9658,55.8062 L710.9658,57.7183 Q710.665,57.8525 710.3911,57.9707 Q710.1172,58.0889 709.8164,58.1748 Q709.4243,58.2876 709.0806,58.3467 Q708.7368,58.4058 708.1353,58.4058 Z " fill="#000000"/><text fill="#FFFFFF" font-family="Verdana" font-size="11" lengthAdjust="spacing" textLength="78" x="719" y="58.3748">selfReference</text><line style="stroke:#1B1B1B;stroke-width:1.5;" x1="697" x2="799" y1="67" y2="67"/><rect fill="none" height="6" style="stroke:#C82930;stroke-width:1.0;" width="6" x="704" y="75"/><text fill="#AAAAAA" font-family="sans-serif" font-size="11" lengthAdjust="spacing" textLength="45" x="713" y="81.6348">function</text><line style="stroke:#1B1B1B;stroke-width:1.5;" x1="697" x2="799" y1="87.9551" y2="87.9551"/><!--MD5=[09614e9beaaefeb30e96bee978a67676]
class addConfiguration--><rect codeLine="41" fill="#1E90FF" filter="url(#f1kmxl3rz9mosb)" height="54.9551" id="addConfiguration" style="stroke:#1B1B1B;stroke-width:1.5;" width="123" x="356.5" y="386"/><ellipse cx="368.5" cy="399" fill="#1A66C2" rx="8" ry="8" style="stroke:#1B1B1B;stroke-width:1.0;"/><path d="M368.6353,403.4058 Q367.7437,403.4058 366.989,403.1426 Q366.2344,402.8794 365.6919,402.3584 Q365.1494,401.8374 364.8513,401.0586 Q364.5532,400.2798 364.5532,399.2593 Q364.5532,398.3086 364.8379,397.5352 Q365.1226,396.7617 365.665,396.2085 Q366.186,395.6768 366.9568,395.3867 Q367.7275,395.0967 368.6406,395.0967 Q369.1455,395.0967 369.551,395.1531 Q369.9565,395.2095 370.3003,395.3008 Q370.6602,395.4028 370.9529,395.5291 Q371.2456,395.6553 371.4658,395.7627 L371.4658,397.7017 L371.2295,397.7017 Q371.0791,397.5728 370.8508,397.3955 Q370.6226,397.2183 370.3325,397.0464 Q370.0371,396.8745 369.6934,396.7563 Q369.3496,396.6382 368.9575,396.6382 Q368.5225,396.6382 368.1304,396.7751 Q367.7383,396.9121 367.4053,397.229 Q367.0884,397.5352 366.8923,398.04 Q366.6963,398.5449 366.6963,399.2646 Q366.6963,400.0166 366.9084,400.5215 Q367.1206,401.0264 367.4429,401.3164 Q367.7705,401.6118 368.1733,401.738 Q368.5762,401.8643 368.9683,401.8643 Q369.3442,401.8643 369.7122,401.7515 Q370.0801,401.6387 370.3916,401.4453 Q370.6548,401.2896 370.8804,401.1123 Q371.106,400.9351 371.251,400.8062 L371.4658,400.8062 L371.4658,402.7183 Q371.165,402.8525 370.8911,402.9707 Q370.6172,403.0889 370.3164,403.1748 Q369.9243,403.2876 369.5806,403.3467 Q369.2368,403.4058 368.6353,403.4058 Z " fill="#000000"/><text fill="#FFFFFF" font-family="Verdana" font-size="11" lengthAdjust="spacing" textLength="97" x="379.5" y="403.3748">addConfiguration</text><line style="stroke:#1B1B1B;stroke-width:1.5;" x1="357.5" x2="478.5" y1="412" y2="412"/><rect fill="none" height="6" style="stroke:#C82930;stroke-width:1.0;" width="6" x="364.5" y="420"/><text fill="#AAAAAA" font-family="sans-serif" font-size="11" lengthAdjust="spacing" textLength="20" x="373.5" y="426.6348">sub</text><line style="stroke:#1B1B1B;stroke-width:1.5;" x1="357.5" x2="478.5" y1="432.9551" y2="432.9551"/><!--MD5=[7354dbe23465494698d685a37fb80df9]
class addOneReference--><rect codeLine="48" fill="#1E90FF" filter="url(#f1kmxl3rz9mosb)" height="54.9551" id="addOneReference" style="stroke:#1B1B1B;stroke-width:1.5;" width="128" x="515" y="386"/><ellipse cx="527" cy="399" fill="#1A66C2" rx="8" ry="8" style="stroke:#1B1B1B;stroke-width:1.0;"/><path d="M527.1353,403.4058 Q526.2437,403.4058 525.489,403.1426 Q524.7344,402.8794 524.1919,402.3584 Q523.6494,401.8374 523.3513,401.0586 Q523.0532,400.2798 523.0532,399.2593 Q523.0532,398.3086 523.3379,397.5352 Q523.6226,396.7617 524.165,396.2085 Q524.686,395.6768 525.4568,395.3867 Q526.2275,395.0967 527.1406,395.0967 Q527.6455,395.0967 528.051,395.1531 Q528.4565,395.2095 528.8003,395.3008 Q529.1602,395.4028 529.4529,395.5291 Q529.7456,395.6553 529.9658,395.7627 L529.9658,397.7017 L529.7295,397.7017 Q529.5791,397.5728 529.3508,397.3955 Q529.1226,397.2183 528.8325,397.0464 Q528.5371,396.8745 528.1934,396.7563 Q527.8496,396.6382 527.4575,396.6382 Q527.0225,396.6382 526.6304,396.7751 Q526.2383,396.9121 525.9053,397.229 Q525.5884,397.5352 525.3923,398.04 Q525.1963,398.5449 525.1963,399.2646 Q525.1963,400.0166 525.4084,400.5215 Q525.6206,401.0264 525.9429,401.3164 Q526.2705,401.6118 526.6733,401.738 Q527.0762,401.8643 527.4683,401.8643 Q527.8442,401.8643 528.2122,401.7515 Q528.5801,401.6387 528.8916,401.4453 Q529.1548,401.2896 529.3804,401.1123 Q529.606,400.9351 529.751,400.8062 L529.9658,400.8062 L529.9658,402.7183 Q529.665,402.8525 529.3911,402.9707 Q529.1172,403.0889 528.8164,403.1748 Q528.4243,403.2876 528.0806,403.3467 Q527.7368,403.4058 527.1353,403.4058 Z " fill="#000000"/><text fill="#FFFFFF" font-family="Verdana" font-size="11" lengthAdjust="spacing" textLength="102" x="538" y="403.3748">addOneReference</text><line style="stroke:#1B1B1B;stroke-width:1.5;" x1="516" x2="642" y1="412" y2="412"/><rect fill="none" height="6" style="stroke:#C82930;stroke-width:1.0;" width="6" x="523" y="420"/><text fill="#AAAAAA" font-family="sans-serif" font-size="11" lengthAdjust="spacing" textLength="20" x="532" y="426.6348">sub</text><line style="stroke:#1B1B1B;stroke-width:1.5;" x1="516" x2="642" y1="432.9551" y2="432.9551"/><!--MD5=[d6cd33b793326eddac5a4a32f94bbd27]
class configurationCount--><rect codeLine="35" fill="#1E90FF" filter="url(#f1kmxl3rz9mosb)" height="54.9551" id="configurationCount" style="stroke:#1B1B1B;stroke-width:1.5;" width="133" x="451.5" y="501"/><ellipse cx="463.5" cy="514" fill="#1A66C2" rx="8" ry="8" style="stroke:#1B1B1B;stroke-width:1.0;"/><path d="M463.6353,518.4058 Q462.7437,518.4058 461.989,518.1426 Q461.2344,517.8794 460.6919,517.3584 Q460.1494,516.8374 459.8513,516.0586 Q459.5532,515.2798 459.5532,514.2593 Q459.5532,513.3086 459.8379,512.5352 Q460.1226,511.7617 460.665,511.2085 Q461.186,510.6768 461.9568,510.3867 Q462.7275,510.0967 463.6406,510.0967 Q464.1455,510.0967 464.551,510.1531 Q464.9565,510.2095 465.3003,510.3008 Q465.6602,510.4028 465.9529,510.5291 Q466.2456,510.6553 466.4658,510.7627 L466.4658,512.7017 L466.2295,512.7017 Q466.0791,512.5728 465.8508,512.3955 Q465.6226,512.2183 465.3325,512.0464 Q465.0371,511.8745 464.6934,511.7563 Q464.3496,511.6382 463.9575,511.6382 Q463.5225,511.6382 463.1304,511.7751 Q462.7383,511.9121 462.4053,512.229 Q462.0884,512.5352 461.8923,513.04 Q461.6963,513.5449 461.6963,514.2646 Q461.6963,515.0166 461.9084,515.5215 Q462.1206,516.0264 462.4429,516.3164 Q462.7705,516.6118 463.1733,516.738 Q463.5762,516.8643 463.9683,516.8643 Q464.3442,516.8643 464.7122,516.7515 Q465.0801,516.6387 465.3916,516.4453 Q465.6548,516.2896 465.8804,516.1123 Q466.106,515.9351 466.251,515.8062 L466.4658,515.8062 L466.4658,517.7183 Q466.165,517.8525 465.8911,517.9707 Q465.6172,518.0889 465.3164,518.1748 Q464.9243,518.2876 464.5806,518.3467 Q464.2368,518.4058 463.6353,518.4058 Z " fill="#000000"/><text fill="#FFFFFF" font-family="Verdana" font-size="11" lengthAdjust="spacing" textLength="107" x="474.5" y="518.3748">configurationCount</text><line style="stroke:#1B1B1B;stroke-width:1.5;" x1="452.5" x2="583.5" y1="527" y2="527"/><rect fill="none" height="6" style="stroke:#C82930;stroke-width:1.0;" width="6" x="459.5" y="535"/><text fill="#AAAAAA" font-family="sans-serif" font-size="11" lengthAdjust="spacing" textLength="45" x="468.5" y="541.6348">function</text><line style="stroke:#1B1B1B;stroke-width:1.5;" x1="452.5" x2="583.5" y1="547.9551" y2="547.9551"/><!--MD5=[2fe501e49219474a6c3225aecf0f058e]
class referenceCount--><rect codeLine="38" fill="#1E90FF" filter="url(#f1kmxl3rz9mosb)" height="54.9551" id="referenceCount" style="stroke:#1B1B1B;stroke-width:1.5;" width="114" x="59" y="501"/><ellipse cx="71" cy="514" fill="#1A66C2" rx="8" ry="8" style="stroke:#1B1B1B;stroke-width:1.0;"/><path d="M71.1353,518.4058 Q70.2437,518.4058 69.489,518.1426 Q68.7344,517.8794 68.1919,517.3584 Q67.6494,516.8374 67.3513,516.0586 Q67.0532,515.2798 67.0532,514.2593 Q67.0532,513.3086 67.3379,512.5352 Q67.6226,511.7617 68.165,511.2085 Q68.686,510.6768 69.4568,510.3867 Q70.2275,510.0967 71.1406,510.0967 Q71.6455,510.0967 72.051,510.1531 Q72.4565,510.2095 72.8003,510.3008 Q73.1602,510.4028 73.4529,510.5291 Q73.7456,510.6553 73.9658,510.7627 L73.9658,512.7017 L73.7295,512.7017 Q73.5791,512.5728 73.3508,512.3955 Q73.1226,512.2183 72.8325,512.0464 Q72.5371,511.8745 72.1934,511.7563 Q71.8496,511.6382 71.4575,511.6382 Q71.0225,511.6382 70.6304,511.7751 Q70.2383,511.9121 69.9053,512.229 Q69.5884,512.5352 69.3923,513.04 Q69.1963,513.5449 69.1963,514.2646 Q69.1963,515.0166 69.4084,515.5215 Q69.6206,516.0264 69.9429,516.3164 Q70.2705,516.6118 70.6733,516.738 Q71.0762,516.8643 71.4683,516.8643 Q71.8442,516.8643 72.2122,516.7515 Q72.5801,516.6387 72.8916,516.4453 Q73.1548,516.2896 73.3804,516.1123 Q73.606,515.9351 73.751,515.8062 L73.9658,515.8062 L73.9658,517.7183 Q73.665,517.8525 73.3911,517.9707 Q73.1172,518.0889 72.8164,518.1748 Q72.4243,518.2876 72.0806,518.3467 Q71.7368,518.4058 71.1353,518.4058 Z " fill="#000000"/><text fill="#FFFFFF" font-family="Verdana" font-size="11" lengthAdjust="spacing" textLength="88" x="82" y="518.3748">referenceCount</text><line style="stroke:#1B1B1B;stroke-width:1.5;" x1="60" x2="172" y1="527" y2="527"/><rect fill="none" height="6" style="stroke:#C82930;stroke-width:1.0;" width="6" x="67" y="535"/><text fill="#AAAAAA" font-family="sans-serif" font-size="11" lengthAdjust="spacing" textLength="45" x="76" y="541.6348">function</text><line style="stroke:#1B1B1B;stroke-width:1.5;" x1="60" x2="172" y1="547.9551" y2="547.9551"/><!--MD5=[ce92dd9d4ed4d2904599f8cb8e7ab6bb]
class addReferences--><rect codeLine="44" fill="#1E90FF" filter="url(#f1kmxl3rz9mosb)" height="54.9551" id="addReferences" style="stroke:#1B1B1B;stroke-width:1.5;" width="111" x="541.5" y="271"/><ellipse cx="553.5" cy="284" fill="#1A66C2" rx="8" ry="8" style="stroke:#1B1B1B;stroke-width:1.0;"/><path d="M553.6353,288.4058 Q552.7437,288.4058 551.989,288.1426 Q551.2344,287.8794 550.6919,287.3584 Q550.1494,286.8374 549.8513,286.0586 Q549.5532,285.2798 549.5532,284.2593 Q549.5532,283.3086 549.8379,282.5352 Q550.1226,281.7617 550.665,281.2085 Q551.186,280.6768 551.9568,280.3867 Q552.7275,280.0967 553.6406,280.0967 Q554.1455,280.0967 554.551,280.1531 Q554.9565,280.2095 555.3003,280.3008 Q555.6602,280.4028 555.9529,280.5291 Q556.2456,280.6553 556.4658,280.7627 L556.4658,282.7017 L556.2295,282.7017 Q556.0791,282.5728 555.8508,282.3955 Q555.6226,282.2183 555.3325,282.0464 Q555.0371,281.8745 554.6934,281.7563 Q554.3496,281.6382 553.9575,281.6382 Q553.5225,281.6382 553.1304,281.7751 Q552.7383,281.9121 552.4053,282.229 Q552.0884,282.5352 551.8923,283.04 Q551.6963,283.5449 551.6963,284.2646 Q551.6963,285.0166 551.9084,285.5215 Q552.1206,286.0264 552.4429,286.3164 Q552.7705,286.6118 553.1733,286.738 Q553.5762,286.8643 553.9683,286.8643 Q554.3442,286.8643 554.7122,286.7515 Q555.0801,286.6387 555.3916,286.4453 Q555.6548,286.2896 555.8804,286.1123 Q556.106,285.9351 556.251,285.8062 L556.4658,285.8062 L556.4658,287.7183 Q556.165,287.8525 555.8911,287.9707 Q555.6172,288.0889 555.3164,288.1748 Q554.9243,288.2876 554.5806,288.3467 Q554.2368,288.4058 553.6353,288.4058 Z " fill="#000000"/><text fill="#FFFFFF" font-family="Verdana" font-size="11" lengthAdjust="spacing" textLength="85" x="564.5" y="288.3748">addReferences</text><line style="stroke:#1B1B1B;stroke-width:1.5;" x1="542.5" x2="651.5" y1="297" y2="297"/><rect fill="none" height="6" style="stroke:#C82930;stroke-width:1.0;" width="6" x="549.5" y="305"/><text fill="#AAAAAA" font-family="sans-serif" font-size="11" lengthAdjust="spacing" textLength="20" x="558.5" y="311.6348">sub</text><line style="stroke:#1B1B1B;stroke-width:1.5;" x1="542.5" x2="651.5" y1="317.9551" y2="317.9551"/><!--MD5=[f9eed2d81db61df4a8c9158fdff938c5]
class allReferences--><rect codeLine="51" fill="#2E2E2E" filter="url(#f1kmxl3rz9mosb)" height="54.9551" id="allReferences" style="stroke:#1B1B1B;stroke-width:1.5;" width="103" x="548.5" y="156"/><ellipse cx="560.5" cy="169" fill="#1A66C2" rx="8" ry="8" style="stroke:#1B1B1B;stroke-width:1.0;"/><path d="M560.6353,173.4058 Q559.7437,173.4058 558.989,173.1426 Q558.2344,172.8794 557.6919,172.3584 Q557.1494,171.8374 556.8513,171.0586 Q556.5532,170.2798 556.5532,169.2593 Q556.5532,168.3086 556.8379,167.5352 Q557.1226,166.7617 557.665,166.2085 Q558.186,165.6768 558.9568,165.3867 Q559.7275,165.0967 560.6406,165.0967 Q561.1455,165.0967 561.551,165.1531 Q561.9565,165.2095 562.3003,165.3008 Q562.6602,165.4028 562.9529,165.5291 Q563.2456,165.6553 563.4658,165.7627 L563.4658,167.7017 L563.2295,167.7017 Q563.0791,167.5728 562.8508,167.3955 Q562.6226,167.2183 562.3325,167.0464 Q562.0371,166.8745 561.6934,166.7563 Q561.3496,166.6382 560.9575,166.6382 Q560.5225,166.6382 560.1304,166.7751 Q559.7383,166.9121 559.4053,167.229 Q559.0884,167.5352 558.8923,168.04 Q558.6963,168.5449 558.6963,169.2646 Q558.6963,170.0166 558.9084,170.5215 Q559.1206,171.0264 559.4429,171.3164 Q559.7705,171.6118 560.1733,171.738 Q560.5762,171.8643 560.9683,171.8643 Q561.3442,171.8643 561.7122,171.7515 Q562.0801,171.6387 562.3916,171.4453 Q562.6548,171.2896 562.8804,171.1123 Q563.106,170.9351 563.251,170.8062 L563.4658,170.8062 L563.4658,172.7183 Q563.165,172.8525 562.8911,172.9707 Q562.6172,173.0889 562.3164,173.1748 Q561.9243,173.2876 561.5806,173.3467 Q561.2368,173.4058 560.6353,173.4058 Z " fill="#000000"/><text fill="#FFFFFF" font-family="Verdana" font-size="11" lengthAdjust="spacing" textLength="77" x="571.5" y="173.3748">allReferences</text><line style="stroke:#1B1B1B;stroke-width:1.5;" x1="549.5" x2="650.5" y1="182" y2="182"/><rect fill="none" height="6" style="stroke:#C82930;stroke-width:1.0;" width="6" x="556.5" y="190"/><text fill="#AAAAAA" font-family="sans-serif" font-size="11" lengthAdjust="spacing" textLength="45" x="565.5" y="196.6348">function</text><line style="stroke:#1B1B1B;stroke-width:1.5;" x1="549.5" x2="650.5" y1="202.9551" y2="202.9551"/><!--MD5=[0e2ae78b452e9af625f2427e37fd1818]
class setReferenceWihNumber--><rect codeLine="58" fill="#1E90FF" filter="url(#f1kmxl3rz9mosb)" height="54.9551" id="setReferenceWihNumber" style="stroke:#1B1B1B;stroke-width:1.5;" width="167" x="32.5" y="386"/><ellipse cx="44.5" cy="399" fill="#1A66C2" rx="8" ry="8" style="stroke:#1B1B1B;stroke-width:1.0;"/><path d="M44.6353,403.4058 Q43.7437,403.4058 42.989,403.1426 Q42.2344,402.8794 41.6919,402.3584 Q41.1494,401.8374 40.8513,401.0586 Q40.5532,400.2798 40.5532,399.2593 Q40.5532,398.3086 40.8379,397.5352 Q41.1226,396.7617 41.665,396.2085 Q42.186,395.6768 42.9568,395.3867 Q43.7275,395.0967 44.6406,395.0967 Q45.1455,395.0967 45.551,395.1531 Q45.9565,395.2095 46.3003,395.3008 Q46.6602,395.4028 46.9529,395.5291 Q47.2456,395.6553 47.4658,395.7627 L47.4658,397.7017 L47.2295,397.7017 Q47.0791,397.5728 46.8508,397.3955 Q46.6226,397.2183 46.3325,397.0464 Q46.0371,396.8745 45.6934,396.7563 Q45.3496,396.6382 44.9575,396.6382 Q44.5225,396.6382 44.1304,396.7751 Q43.7383,396.9121 43.4053,397.229 Q43.0884,397.5352 42.8923,398.04 Q42.6963,398.5449 42.6963,399.2646 Q42.6963,400.0166 42.9084,400.5215 Q43.1206,401.0264 43.4429,401.3164 Q43.7705,401.6118 44.1733,401.738 Q44.5762,401.8643 44.9683,401.8643 Q45.3442,401.8643 45.7122,401.7515 Q46.0801,401.6387 46.3916,401.4453 Q46.6548,401.2896 46.8804,401.1123 Q47.106,400.9351 47.251,400.8062 L47.4658,400.8062 L47.4658,402.7183 Q47.165,402.8525 46.8911,402.9707 Q46.6172,403.0889 46.3164,403.1748 Q45.9243,403.2876 45.5806,403.3467 Q45.2368,403.4058 44.6353,403.4058 Z " fill="#000000"/><text fill="#FFFFFF" font-family="Verdana" font-size="11" lengthAdjust="spacing" textLength="141" x="55.5" y="403.3748">setReferenceWihNumber</text><line style="stroke:#1B1B1B;stroke-width:1.5;" x1="33.5" x2="198.5" y1="412" y2="412"/><rect fill="none" height="6" style="stroke:#C82930;stroke-width:1.0;" width="6" x="40.5" y="420"/><text fill="#AAAAAA" font-family="sans-serif" font-size="11" lengthAdjust="spacing" textLength="20" x="49.5" y="426.6348">sub</text><line style="stroke:#1B1B1B;stroke-width:1.5;" x1="33.5" x2="198.5" y1="432.9551" y2="432.9551"/><!--MD5=[3e00075c6040200e791dae25b4eecdb8]
link init to references--><path codeLine="10" d="M263.39,96.13 C258.07,154.17 260.68,292.7 267.82,365.68 " fill="none" id="init-to-references" style="stroke:#FFFFFF;stroke-width:1.0;"/><polygon fill="none" points="274.79,364.98,270.12,385.65,260.88,366.58,274.79,364.98" style="stroke:#FFFFFF;stroke-width:1.0;"/><!--MD5=[3e00075c6040200e791dae25b4eecdb8]
link init to references--><path codeLine="12" d="M278.27,96.13 C286.7,154.17 290.59,292.7 286.53,365.68 " fill="none" id="init-to-references-1" style="stroke:#FFFFFF;stroke-width:1.0;"/><polygon fill="none" points="293.51,366.22,285.05,385.65,279.55,365.19,293.51,366.22" style="stroke:#FFFFFF;stroke-width:1.0;"/><!--MD5=[199fcc60a41cdbfe8c6acbe6e6ff7d5b]
link init to setReferenceSheet--><path codeLine="11" d="M291.59,88.41 C308.4,103.13 332.31,124.08 353.31,142.48 " fill="none" id="init-to-setReferenceSheet" style="stroke:#FFFFFF;stroke-width:1.0;"/><polygon fill="none" points="358.2,137.46,368.63,155.9,348.98,147.99,358.2,137.46" style="stroke:#FFFFFF;stroke-width:1.0;"/><!--MD5=[e6b64a87e7b1e9f823aa1083c045b8d6]
link setReferenceSheet to references--><path codeLine="16" d="M371.77,211.32 C356.62,227.47 338.37,249.1 326,271 C309.1,300.94 296.83,337.8 288.93,366.4 " fill="none" id="setReferenceSheet-to-references" style="stroke:#FFFFFF;stroke-width:1.0;"/><polygon fill="none" points="295.65,368.37,283.84,385.97,282.1,364.85,295.65,368.37" style="stroke:#FFFFFF;stroke-width:1.0;"/><!--MD5=[f0f2aa53c2521b9a70ac01a96d932bb1]
link setReferenceSheet to initializeReferenceSheet--><path codeLine="17" d="M405.16,211.28 C407.91,223.24 411.24,237.69 414.37,251.31 " fill="none" id="setReferenceSheet-to-initializeReferenceSheet" style="stroke:#FFFFFF;stroke-width:1.0;"/><polygon fill="none" points="421.22,249.85,418.88,270.91,407.58,252.99,421.22,249.85" style="stroke:#FFFFFF;stroke-width:1.0;"/><!--MD5=[fccd461146f0ee15eb3342ffccbb24ac]
link setReferenceSheet to alignConfigurationCount--><path codeLine="18" d="M466.12,200.3 C535.46,217.59 637.94,246.16 670,271 C702.24,295.98 725.9,336.17 740.69,367.35 " fill="none" id="setReferenceSheet-to-alignConfigurationCount" style="stroke:#FFFFFF;stroke-width:1.0;"/><polygon fill="none" points="747.18,364.72,748.94,385.83,734.4,370.42,747.18,364.72" style="stroke:#FFFFFF;stroke-width:1.0;"/><!--MD5=[11d96546fea6646499ea24250f1405dd]
link initializeReferenceSheet to references--><path codeLine="25" d="M379.13,326.28 C359.23,340.21 336.32,357.51 317.22,372.95 " fill="none" id="initializeReferenceSheet-to-references" style="stroke:#FFFFFF;stroke-width:1.0;"/><polygon fill="none" points="321.45,378.54,301.58,385.91,312.51,367.76,321.45,378.54" style="stroke:#FFFFFF;stroke-width:1.0;"/><!--MD5=[11d96546fea6646499ea24250f1405dd]
link initializeReferenceSheet to references--><path codeLine="27" d="M401.84,326.28 C384.56,341.1 360.67,359.74 338.35,375.89 " fill="none" id="initializeReferenceSheet-to-references-1" style="stroke:#FFFFFF;stroke-width:1.0;"/><polygon fill="none" points="342.1,381.81,321.73,387.65,334.01,370.39,342.1,381.81" style="stroke:#FFFFFF;stroke-width:1.0;"/><!--MD5=[a8804a3506d1ca2b826897dd87379cde]
link initializeReferenceSheet to addConfiguration--><path codeLine="26" d="M423.34,326.28 C422.61,338.1 421.73,352.35 420.89,365.83 " fill="none" id="initializeReferenceSheet-to-addConfiguration" style="stroke:#FFFFFF;stroke-width:1.0;"/><polygon fill="none" points="427.87,366.38,419.65,385.91,413.9,365.52,427.87,366.38" style="stroke:#FFFFFF;stroke-width:1.0;"/><!--MD5=[b1bdb3ee06b1666329421b1a99628275]
link initializeReferenceSheet to addOneReference--><path codeLine="28" d="M450.46,326.28 C468.28,340.7 492.5,358.74 515.21,374.58 " fill="none" id="initializeReferenceSheet-to-addOneReference" style="stroke:#FFFFFF;stroke-width:1.0;"/><polygon fill="none" points="519.21,368.84,531.76,385.91,511.3,380.39,519.21,368.84" style="stroke:#FFFFFF;stroke-width:1.0;"/><!--MD5=[b1bdb3ee06b1666329421b1a99628275]
link initializeReferenceSheet to addOneReference--><path codeLine="29" d="M473.18,326.28 C494.26,340.35 518.53,357.86 538.66,373.42 " fill="none" id="initializeReferenceSheet-to-addOneReference-1" style="stroke:#FFFFFF;stroke-width:1.0;"/><polygon fill="none" points="543.09,368.01,554.42,385.91,534.4,378.98,543.09,368.01" style="stroke:#FFFFFF;stroke-width:1.0;"/><!--MD5=[70ac82eb7d33eecb7b9bfc7e624108ae]
link alignConfigurationCount to configurationCount--><path codeLine="33" d="M691.18,441.14 C656.98,456.26 615.86,475.39 582.19,491.8 " fill="none" id="alignConfigurationCount-to-configurationCount" style="stroke:#FFFFFF;stroke-width:1.0;"/><polygon fill="none" points="584.86,498.29,563.83,500.85,578.68,485.73,584.86,498.29" style="stroke:#FFFFFF;stroke-width:1.0;"/><!--MD5=[70ac82eb7d33eecb7b9bfc7e624108ae]
link alignConfigurationCount to configurationCount--><path codeLine="34" d="M713.85,441.14 C682.65,456.77 640.47,476.67 603.16,493.44 " fill="none" id="alignConfigurationCount-to-configurationCount-1" style="stroke:#FFFFFF;stroke-width:1.0;"/><polygon fill="none" points="605.86,499.9,584.74,501.63,600.17,487.1,605.86,499.9" style="stroke:#FFFFFF;stroke-width:1.0;"/><!--MD5=[e1994aeb29f297d723bd4f94bae1e298]
link addReferences to addOneReference--><path codeLine="47" d="M592.73,326.28 C590.85,338.1 588.58,352.35 586.43,365.83 " fill="none" id="addReferences-to-addOneReference" style="stroke:#FFFFFF;stroke-width:1.0;"/><polygon fill="none" points="593.29,367.26,583.24,385.91,579.47,365.06,593.29,367.26" style="stroke:#FFFFFF;stroke-width:1.0;"/><!--MD5=[f26eb0fe5e1d5948baf387aa6b7e1fb9]
link references to configurationCount--><path codeLine="57" d="M321.74,435.09 C355.59,451.03 403.26,473.48 443.14,492.25 " fill="none" id="references-to-configurationCount" style="stroke:#FFFFFF;stroke-width:1.0;"/><polygon fill="none" points="446.31,486.01,461.42,500.86,440.34,498.67,446.31,486.01" style="stroke:#FFFFFF;stroke-width:1.0;"/><!--MD5=[846658ea544cf55317ffda3155f5ead6]
link setReferenceWihNumber to referenceCount--><path codeLine="61" d="M116,441.28 C116,453.1 116,467.35 116,480.83 " fill="none" id="setReferenceWihNumber-to-referenceCount" style="stroke:#FFFFFF;stroke-width:1.0;"/><polygon fill="none" points="123,480.91,116,500.91,109,480.91,123,480.91" style="stroke:#FFFFFF;stroke-width:1.0;"/><!--MD5=[054c4345133342f2f342cb00e6925d0a]
link setReferenceWihNumber to configurationCount--><path codeLine="62" d="M199.78,438.05 C267.74,457.15 363.19,483.98 431.79,503.27 " fill="none" id="setReferenceWihNumber-to-configurationCount" style="stroke:#FFFFFF;stroke-width:1.0;"/><polygon fill="none" points="433.91,496.59,451.27,508.74,430.12,510.07,433.91,496.59" style="stroke:#FFFFFF;stroke-width:1.0;"/><!--MD5=[7e07d155f903a3e6e0b6f2013edd18ba]
link Class_Terminate to selfReference--><!--MD5=[c8bf961c9bbc25a818f27da4dc9462f4]
link Class_Terminate to allReferences--><!--MD5=[3b87ada6d138adb694b1db9ea1769c9c]
@startuml
!define DARKBLUE
!include https://raw.githubusercontent.com/Drakemor/RedDress-PlantUML/master/style.puml
file vtkReferenceManager.cls{
class Class_Terminate #1e90ff {
- sub
}
class init #1e90ff {
- sub
}
init -down-|> references
init -down-|> setReferenceSheet
init -down-|> references
class setReferenceSheet #1e90ff {
- sub
}
setReferenceSheet -down-|> references
setReferenceSheet -down-|> initializeReferenceSheet
setReferenceSheet -down-|> alignConfigurationCount
class selfReference {
- function
}
class initializeReferenceSheet #1e90ff {
- sub
}
initializeReferenceSheet -down-|> references
initializeReferenceSheet -down-|> addConfiguration
initializeReferenceSheet -down-|> references
initializeReferenceSheet -down-|> addOneReference
initializeReferenceSheet -down-|> addOneReference
class alignConfigurationCount {
- sub
}
alignConfigurationCount -down-|> configurationCount
alignConfigurationCount -down-|> configurationCount
class configurationCount #1e90ff {
- function
}
class referenceCount #1e90ff {
- function
}
class addConfiguration #1e90ff {
- sub
}
class addReferences #1e90ff {
- sub
}
addReferences -down-|> addOneReference
class addOneReference #1e90ff {
- sub
}
class allReferences {
- function
}
class references #1e90ff {
- function
}
references -down-|> configurationCount
class setReferenceWihNumber #1e90ff {
- sub
}
setReferenceWihNumber -down-|> referenceCount
setReferenceWihNumber -down-|> configurationCount
}
@enduml

@startuml



skinparam backgroundColor 777
skinparam stereotypeCBackgroundColor 1a66c2









skinparam backgroundColor 777







skinparam circledCharacter {
  radius 8
  fontSize 11
  fontName Verdana
}

skinparam class {
    backgroundColor 2e2e2e
  borderColor 1b1b1b
    fontColor fff
  fontName Verdana
  fontSize 11
  stereotypeFontColor aaa
  stereotypeFontSize 11
    arrowColor fff
  arrowFontName Verdana
  arrowFontColor bbb
  arrowFontSize 11

  attributeFontColor aaa
  attributeFontSize 11
  attributeIconSize 11
}


skinparam actor {
    backgroundColor 1a66c2
  borderColor 002642
    fontColor fff
  fontName Verdana
  fontSize 11
  stereotypeFontColor aaa
  stereotypeFontSize 11
}

skinparam participant {
    backgroundColor 2e2e2e
  borderColor 1b1b1b
    fontColor fff
  fontName Verdana
  fontSize 11
  stereotypeFontColor aaa
  stereotypeFontSize 11
}

skinparam collections {
    backgroundColor 2e2e2e
  borderColor 1b1b1b
    fontColor fff
  fontName Verdana
  fontSize 11
  stereotypeFontColor aaa
  stereotypeFontSize 11
}

skinparam SequenceBox{
    backgroundColor 575757
  borderColor 767676
    fontColor fff
  fontName Verdana
  fontSize 11
  stereotypeFontColor aaa
  stereotypeFontSize 11
}


skinparam interface {
    backgroundColor 1a66c2
  borderColor 002642
    fontColor fff
  fontName Verdana
  fontSize 11
  stereotypeFontColor aaa
  stereotypeFontSize 11
}

skinparam component {
    backgroundColor 2e2e2e
  borderColor 1b1b1b
    fontColor fff
  fontName Verdana
  fontSize 11
  stereotypeFontColor aaa
  stereotypeFontSize 11
}

skinparam node {
    backgroundColor 2e2e2e
  borderColor 1b1b1b
    fontColor fff
  fontName Verdana
  fontSize 11
  stereotypeFontColor aaa
  stereotypeFontSize 11
}

skinparam database {
    backgroundColor 2e2e2e
  borderColor 1b1b1b
    fontColor fff
  fontName Verdana
  fontSize 11
  stereotypeFontColor aaa
  stereotypeFontSize 11
}

skinparam queue {
    backgroundColor 2e2e2e
  borderColor 1b1b1b
    fontColor fff
  fontName Verdana
  fontSize 11
  stereotypeFontColor aaa
  stereotypeFontSize 11
}


skinparam usecase {
    backgroundColor 2e2e2e
  borderColor 1b1b1b
    fontColor fff
  fontName Verdana
  fontSize 11
  stereotypeFontColor aaa
  stereotypeFontSize 11
    arrowColor fff
  arrowFontName Verdana
  arrowFontColor bbb
  arrowFontSize 11
}

skinparam activity {
    backgroundColor 2e2e2e
  borderColor 1b1b1b
    fontColor fff
  fontName Verdana
  fontSize 11
  stereotypeFontColor aaa
  stereotypeFontSize 11
    arrowColor fff
  arrowFontName Verdana
  arrowFontColor bbb
  arrowFontSize 11
}

skinparam sequence {
    fontColor fff
  fontName Verdana
  fontSize 11
  stereotypeFontColor aaa
  stereotypeFontSize 11
    arrowColor fff
  arrowFontName Verdana
  arrowFontColor bbb
  arrowFontSize 11

  lifeLineBorderColor 1a66c2
  lifeLineBackgroundColor 575757
}

skinparam boundary {
    backgroundColor 1a66c2
  borderColor 002642
    fontColor fff
  fontName Verdana
  fontSize 11
  stereotypeFontColor aaa
  stereotypeFontSize 11
}

skinparam control {
    backgroundColor 1a66c2
  borderColor 002642
    fontColor fff
  fontName Verdana
  fontSize 11
  stereotypeFontColor aaa
  stereotypeFontSize 11
}

skinparam entity {
    backgroundColor 1a66c2
  borderColor 002642
    fontColor fff
  fontName Verdana
  fontSize 11
  stereotypeFontColor aaa
  stereotypeFontSize 11
}


skinparam state {
    backgroundColor 2e2e2e
  borderColor 1b1b1b
    fontColor fff
  fontName Verdana
  fontSize 11
  stereotypeFontColor aaa
  stereotypeFontSize 11
    arrowColor fff
  arrowFontName Verdana
  arrowFontColor bbb
  arrowFontSize 11
  startColor 1a66c2
  endColor 002642
}


skinparam object {
    backgroundColor 2e2e2e
  borderColor 1b1b1b
    fontColor fff
  fontName Verdana
  fontSize 11
  stereotypeFontColor aaa
  stereotypeFontSize 11
    arrowColor fff
  arrowFontName Verdana
  arrowFontColor bbb
  arrowFontSize 11
}


skinparam note {
    backgroundColor 1a66c2
  borderColor 002642
    fontColor fff
  fontName Verdana
  fontSize 11
  stereotypeFontColor aaa
  stereotypeFontSize 11
}

skinparam cloud {
    backgroundColor 2e2e2e
  borderColor 1b1b1b
    fontColor fff
  fontName Verdana
  fontSize 11
  stereotypeFontColor aaa
  stereotypeFontSize 11
    arrowColor fff
  arrowFontName Verdana
  arrowFontColor bbb
  arrowFontSize 11
}

skinparam rectangle {
    backgroundColor 2e2e2e
  borderColor 1b1b1b
    fontColor fff
  fontName Verdana
  fontSize 11
  stereotypeFontColor aaa
  stereotypeFontSize 11
}

skinparam storage {
    backgroundColor 2e2e2e
  borderColor 1b1b1b
    fontColor fff
  fontName Verdana
  fontSize 11
  stereotypeFontColor aaa
  stereotypeFontSize 11
}

file vtkReferenceManager.cls{
class Class_Terminate #1e90ff {
- sub
}
class init #1e90ff {
- sub
}
init -down-|> references
init -down-|> setReferenceSheet
init -down-|> references
class setReferenceSheet #1e90ff {
- sub
}
setReferenceSheet -down-|> references
setReferenceSheet -down-|> initializeReferenceSheet
setReferenceSheet -down-|> alignConfigurationCount
class selfReference {
- function
}
class initializeReferenceSheet #1e90ff {
- sub
}
initializeReferenceSheet -down-|> references
initializeReferenceSheet -down-|> addConfiguration
initializeReferenceSheet -down-|> references
initializeReferenceSheet -down-|> addOneReference
initializeReferenceSheet -down-|> addOneReference
class alignConfigurationCount {
- sub
}
alignConfigurationCount -down-|> configurationCount
alignConfigurationCount -down-|> configurationCount
class configurationCount #1e90ff {
- function
}
class referenceCount #1e90ff {
- function
}
class addConfiguration #1e90ff {
- sub
}
class addReferences #1e90ff {
- sub
}
addReferences -down-|> addOneReference
class addOneReference #1e90ff {
- sub
}
class allReferences {
- function
}
class references #1e90ff {
- function
}
references -down-|> configurationCount
class setReferenceWihNumber #1e90ff {
- sub
}
setReferenceWihNumber -down-|> referenceCount
setReferenceWihNumber -down-|> configurationCount
}
@enduml

PlantUML version 1.2021.15(Wed Dec 01 01:45:34 JST 2021)
(GPL source distribution)
Java Runtime: OpenJDK Runtime Environment
JVM: OpenJDK 64-Bit Server VM
Default Encoding: UTF-8
Language: ja
Country: JP
--></g></svg>