<?xml version="1.0" encoding="UTF-8" standalone="no"?><svg xmlns="http://www.w3.org/2000/svg" xmlns:xlink="http://www.w3.org/1999/xlink" contentScriptType="application/ecmascript" contentStyleType="text/css" height="609px" preserveAspectRatio="none" style="width:1102px;height:609px;background:#FFFFFF;" version="1.1" viewBox="0 0 1102 609" width="1102px" zoomAndPan="magnify"><defs><filter height="300%" id="f9j41zoqbjow0" width="300%" x="-1" y="-1"><feGaussianBlur result="blurOut" stdDeviation="2.0"/><feColorMatrix in="blurOut" result="blurOut2" type="matrix" values="0 0 0 0 0 0 0 0 0 0 0 0 0 0 0 0 0 0 .4 0"/><feOffset dx="4.0" dy="4.0" in="blurOut2" result="blurOut3"/><feBlend in="SourceGraphic" in2="blurOut3" mode="normal"/></filter></defs><g><!--MD5=[7319493c5b4bcec228f7f8a16be441b1]
cluster vtkReferenceManager.cls--><polygon fill="#FFFFFF" filter="url(#f9j41zoqbjow0)" points="16,6,16,602,891,602,891,16,881,6,16,6" style="stroke:#000000;stroke-width:1.5;"/><path d="M881,6 L881,16 L891,16 " fill="#FFFFFF" style="stroke:#000000;stroke-width:1.5;"/><text fill="#000000" font-family="sans-serif" font-size="14" font-weight="bold" lengthAdjust="spacing" textLength="177" x="365" y="21.5352">vtkReferenceManager.cls</text><!--MD5=[1089c0e6b7b24ee484babfc0a43d59f4]
cluster vtkReferenceManager--><polygon fill="#FFFFFF" filter="url(#f9j41zoqbjow0)" points="915,6,1075,6,1082,28.4883,1085,28.4883,1085,118,915,118,915,6" style="stroke:#000000;stroke-width:1.5;"/><line style="stroke:#000000;stroke-width:1.5;" x1="915" x2="1082" y1="28.4883" y2="28.4883"/><text fill="#000000" font-family="sans-serif" font-size="14" font-weight="bold" lengthAdjust="spacing" textLength="154" x="919" y="21.5352">vtkReferenceManager</text><!--MD5=[abc401845c2401b94c513761661fec0a]
class Class_Terminate--><rect codeLine="5" fill="#FEFECE" filter="url(#f9j41zoqbjow0)" height="60.9551" id="Class_Terminate" style="stroke:#A80036;stroke-width:1.5;" width="127" x="558.5" y="41"/><ellipse cx="573.5" cy="57" fill="#ADD1B2" rx="11" ry="11" style="stroke:#A80036;stroke-width:1.0;"/><path d="M575.9731,63.1431 Q575.3921,63.4419 574.7529,63.5913 Q574.1138,63.7407 573.4082,63.7407 Q570.9014,63.7407 569.5815,62.0889 Q568.2617,60.437 568.2617,57.3159 Q568.2617,54.1865 569.5815,52.5347 Q570.9014,50.8828 573.4082,50.8828 Q574.1138,50.8828 574.7612,51.0322 Q575.4087,51.1816 575.9731,51.4805 L575.9731,54.2031 Q575.3423,53.6221 574.7488,53.3523 Q574.1553,53.0825 573.5244,53.0825 Q572.1797,53.0825 571.4949,54.1492 Q570.8101,55.2158 570.8101,57.3159 Q570.8101,59.4077 571.4949,60.4744 Q572.1797,61.541 573.5244,61.541 Q574.1553,61.541 574.7488,61.2712 Q575.3423,61.0015 575.9731,60.4204 Z " fill="#000000"/><text fill="#000000" font-family="sans-serif" font-size="12" lengthAdjust="spacing" textLength="95" x="587.5" y="61.5352">Class_Terminate</text><line style="stroke:#A80036;stroke-width:1.5;" x1="559.5" x2="684.5" y1="73" y2="73"/><rect fill="none" height="6" style="stroke:#C82930;stroke-width:1.0;" width="6" x="566.5" y="81"/><text fill="#000000" font-family="sans-serif" font-size="11" lengthAdjust="spacing" textLength="20" x="578.5" y="87.6348">sub</text><line style="stroke:#A80036;stroke-width:1.5;" x1="559.5" x2="684.5" y1="93.9551" y2="93.9551"/><!--MD5=[60c49cd0a08886b4937565161e944bd5]
class init--><rect codeLine="8" fill="#FEFECE" filter="url(#f9j41zoqbjow0)" height="60.9551" id="init" style="stroke:#A80036;stroke-width:1.5;" width="49" x="258.5" y="41"/><ellipse cx="273.5" cy="57" fill="#ADD1B2" rx="11" ry="11" style="stroke:#A80036;stroke-width:1.0;"/><path d="M275.9731,63.1431 Q275.3921,63.4419 274.7529,63.5913 Q274.1138,63.7407 273.4082,63.7407 Q270.9014,63.7407 269.5815,62.0889 Q268.2617,60.437 268.2617,57.3159 Q268.2617,54.1865 269.5815,52.5347 Q270.9014,50.8828 273.4082,50.8828 Q274.1138,50.8828 274.7612,51.0322 Q275.4087,51.1816 275.9731,51.4805 L275.9731,54.2031 Q275.3423,53.6221 274.7488,53.3523 Q274.1553,53.0825 273.5244,53.0825 Q272.1797,53.0825 271.4949,54.1492 Q270.8101,55.2158 270.8101,57.3159 Q270.8101,59.4077 271.4949,60.4744 Q272.1797,61.541 273.5244,61.541 Q274.1553,61.541 274.7488,61.2712 Q275.3423,61.0015 275.9731,60.4204 Z " fill="#000000"/><text fill="#000000" font-family="sans-serif" font-size="12" lengthAdjust="spacing" textLength="17" x="287.5" y="61.5352">init</text><line style="stroke:#A80036;stroke-width:1.5;" x1="259.5" x2="306.5" y1="73" y2="73"/><rect fill="none" height="6" style="stroke:#C82930;stroke-width:1.0;" width="6" x="266.5" y="81"/><text fill="#000000" font-family="sans-serif" font-size="11" lengthAdjust="spacing" textLength="20" x="278.5" y="87.6348">sub</text><line style="stroke:#A80036;stroke-width:1.5;" x1="259.5" x2="306.5" y1="93.9551" y2="93.9551"/><!--MD5=[af177947976f6252dea9cf023146881e]
class references--><rect codeLine="55" fill="#FEFECE" filter="url(#f9j41zoqbjow0)" height="60.9551" id="references" style="stroke:#A80036;stroke-width:1.5;" width="93" x="241.5" y="404"/><ellipse cx="256.5" cy="420" fill="#ADD1B2" rx="11" ry="11" style="stroke:#A80036;stroke-width:1.0;"/><path d="M258.9731,426.1431 Q258.3921,426.4419 257.7529,426.5913 Q257.1138,426.7407 256.4082,426.7407 Q253.9014,426.7407 252.5815,425.0889 Q251.2617,423.437 251.2617,420.3159 Q251.2617,417.1865 252.5815,415.5347 Q253.9014,413.8828 256.4082,413.8828 Q257.1138,413.8828 257.7612,414.0322 Q258.4087,414.1816 258.9731,414.4805 L258.9731,417.2031 Q258.3423,416.6221 257.7488,416.3523 Q257.1553,416.0825 256.5244,416.0825 Q255.1797,416.0825 254.4949,417.1492 Q253.8101,418.2158 253.8101,420.3159 Q253.8101,422.4077 254.4949,423.4744 Q255.1797,424.541 256.5244,424.541 Q257.1553,424.541 257.7488,424.2712 Q258.3423,424.0015 258.9731,423.4204 Z " fill="#000000"/><text fill="#000000" font-family="sans-serif" font-size="12" lengthAdjust="spacing" textLength="61" x="270.5" y="424.5352">references</text><line style="stroke:#A80036;stroke-width:1.5;" x1="242.5" x2="333.5" y1="436" y2="436"/><rect fill="none" height="6" style="stroke:#C82930;stroke-width:1.0;" width="6" x="249.5" y="444"/><text fill="#000000" font-family="sans-serif" font-size="11" lengthAdjust="spacing" textLength="45" x="261.5" y="450.6348">function</text><line style="stroke:#A80036;stroke-width:1.5;" x1="242.5" x2="333.5" y1="456.9551" y2="456.9551"/><!--MD5=[b48058d54708c3e9caf9665bc227c8b6]
class setReferenceSheet--><rect codeLine="14" fill="#FEFECE" filter="url(#f9j41zoqbjow0)" height="60.9551" id="setReferenceSheet" style="stroke:#A80036;stroke-width:1.5;" width="138" x="345" y="162"/><ellipse cx="360" cy="178" fill="#ADD1B2" rx="11" ry="11" style="stroke:#A80036;stroke-width:1.0;"/><path d="M362.4731,184.1431 Q361.8921,184.4419 361.2529,184.5913 Q360.6138,184.7407 359.9082,184.7407 Q357.4014,184.7407 356.0815,183.0889 Q354.7617,181.437 354.7617,178.3159 Q354.7617,175.1865 356.0815,173.5347 Q357.4014,171.8828 359.9082,171.8828 Q360.6138,171.8828 361.2612,172.0322 Q361.9087,172.1816 362.4731,172.4805 L362.4731,175.2031 Q361.8423,174.6221 361.2488,174.3523 Q360.6553,174.0825 360.0244,174.0825 Q358.6797,174.0825 357.9949,175.1492 Q357.3101,176.2158 357.3101,178.3159 Q357.3101,180.4077 357.9949,181.4744 Q358.6797,182.541 360.0244,182.541 Q360.6553,182.541 361.2488,182.2712 Q361.8423,182.0015 362.4731,181.4204 Z " fill="#000000"/><text fill="#000000" font-family="sans-serif" font-size="12" lengthAdjust="spacing" textLength="106" x="374" y="182.5352">setReferenceSheet</text><line style="stroke:#A80036;stroke-width:1.5;" x1="346" x2="482" y1="194" y2="194"/><rect fill="none" height="6" style="stroke:#C82930;stroke-width:1.0;" width="6" x="353" y="202"/><text fill="#000000" font-family="sans-serif" font-size="11" lengthAdjust="spacing" textLength="20" x="365" y="208.6348">sub</text><line style="stroke:#A80036;stroke-width:1.5;" x1="346" x2="482" y1="214.9551" y2="214.9551"/><!--MD5=[fd0487ffc646c44bb33603512d76884f]
class initializeReferenceSheet--><rect codeLine="23" fill="#FEFECE" filter="url(#f9j41zoqbjow0)" height="60.9551" id="initializeReferenceSheet" style="stroke:#A80036;stroke-width:1.5;" width="168" x="356" y="283"/><ellipse cx="371" cy="299" fill="#ADD1B2" rx="11" ry="11" style="stroke:#A80036;stroke-width:1.0;"/><path d="M373.4731,305.1431 Q372.8921,305.4419 372.2529,305.5913 Q371.6138,305.7407 370.9082,305.7407 Q368.4014,305.7407 367.0815,304.0889 Q365.7617,302.437 365.7617,299.3159 Q365.7617,296.1865 367.0815,294.5347 Q368.4014,292.8828 370.9082,292.8828 Q371.6138,292.8828 372.2612,293.0322 Q372.9087,293.1816 373.4731,293.4805 L373.4731,296.2031 Q372.8423,295.6221 372.2488,295.3523 Q371.6553,295.0825 371.0244,295.0825 Q369.6797,295.0825 368.9949,296.1492 Q368.3101,297.2158 368.3101,299.3159 Q368.3101,301.4077 368.9949,302.4744 Q369.6797,303.541 371.0244,303.541 Q371.6553,303.541 372.2488,303.2712 Q372.8423,303.0015 373.4731,302.4204 Z " fill="#000000"/><text fill="#000000" font-family="sans-serif" font-size="12" lengthAdjust="spacing" textLength="136" x="385" y="303.5352">initializeReferenceSheet</text><line style="stroke:#A80036;stroke-width:1.5;" x1="357" x2="523" y1="315" y2="315"/><rect fill="none" height="6" style="stroke:#C82930;stroke-width:1.0;" width="6" x="364" y="323"/><text fill="#000000" font-family="sans-serif" font-size="11" lengthAdjust="spacing" textLength="20" x="376" y="329.6348">sub</text><line style="stroke:#A80036;stroke-width:1.5;" x1="357" x2="523" y1="335.9551" y2="335.9551"/><!--MD5=[91d86a792cf379b579253b5be569d9bb]
class alignConfigurationCount--><rect codeLine="31" fill="#FEFECE" filter="url(#f9j41zoqbjow0)" height="60.9551" id="alignConfigurationCount" style="stroke:#A80036;stroke-width:1.5;" width="168" x="707" y="404"/><ellipse cx="722" cy="420" fill="#ADD1B2" rx="11" ry="11" style="stroke:#A80036;stroke-width:1.0;"/><path d="M724.4731,426.1431 Q723.8921,426.4419 723.2529,426.5913 Q722.6138,426.7407 721.9082,426.7407 Q719.4014,426.7407 718.0815,425.0889 Q716.7617,423.437 716.7617,420.3159 Q716.7617,417.1865 718.0815,415.5347 Q719.4014,413.8828 721.9082,413.8828 Q722.6138,413.8828 723.2612,414.0322 Q723.9087,414.1816 724.4731,414.4805 L724.4731,417.2031 Q723.8423,416.6221 723.2488,416.3523 Q722.6553,416.0825 722.0244,416.0825 Q720.6797,416.0825 719.9949,417.1492 Q719.3101,418.2158 719.3101,420.3159 Q719.3101,422.4077 719.9949,423.4744 Q720.6797,424.541 722.0244,424.541 Q722.6553,424.541 723.2488,424.2712 Q723.8423,424.0015 724.4731,423.4204 Z " fill="#000000"/><text fill="#000000" font-family="sans-serif" font-size="12" lengthAdjust="spacing" textLength="136" x="736" y="424.5352">alignConfigurationCount</text><line style="stroke:#A80036;stroke-width:1.5;" x1="708" x2="874" y1="436" y2="436"/><rect fill="none" height="6" style="stroke:#C82930;stroke-width:1.0;" width="6" x="715" y="444"/><text fill="#000000" font-family="sans-serif" font-size="11" lengthAdjust="spacing" textLength="20" x="727" y="450.6348">sub</text><line style="stroke:#A80036;stroke-width:1.5;" x1="708" x2="874" y1="456.9551" y2="456.9551"/><!--MD5=[0e4127ca2ded48b50d563ed4b150482e]
class selfReference--><rect codeLine="20" fill="#FEFECE" filter="url(#f9j41zoqbjow0)" height="60.9551" id="selfReference" style="stroke:#A80036;stroke-width:1.5;" width="110" x="721" y="41"/><ellipse cx="736" cy="57" fill="#ADD1B2" rx="11" ry="11" style="stroke:#A80036;stroke-width:1.0;"/><path d="M738.4731,63.1431 Q737.8921,63.4419 737.2529,63.5913 Q736.6138,63.7407 735.9082,63.7407 Q733.4014,63.7407 732.0815,62.0889 Q730.7617,60.437 730.7617,57.3159 Q730.7617,54.1865 732.0815,52.5347 Q733.4014,50.8828 735.9082,50.8828 Q736.6138,50.8828 737.2612,51.0322 Q737.9087,51.1816 738.4731,51.4805 L738.4731,54.2031 Q737.8423,53.6221 737.2488,53.3523 Q736.6553,53.0825 736.0244,53.0825 Q734.6797,53.0825 733.9949,54.1492 Q733.3101,55.2158 733.3101,57.3159 Q733.3101,59.4077 733.9949,60.4744 Q734.6797,61.541 736.0244,61.541 Q736.6553,61.541 737.2488,61.2712 Q737.8423,61.0015 738.4731,60.4204 Z " fill="#000000"/><text fill="#000000" font-family="sans-serif" font-size="12" lengthAdjust="spacing" textLength="78" x="750" y="61.5352">selfReference</text><line style="stroke:#A80036;stroke-width:1.5;" x1="722" x2="830" y1="73" y2="73"/><rect fill="none" height="6" style="stroke:#C82930;stroke-width:1.0;" width="6" x="729" y="81"/><text fill="#000000" font-family="sans-serif" font-size="11" lengthAdjust="spacing" textLength="45" x="741" y="87.6348">function</text><line style="stroke:#A80036;stroke-width:1.5;" x1="722" x2="830" y1="93.9551" y2="93.9551"/><!--MD5=[09614e9beaaefeb30e96bee978a67676]
class addConfiguration--><rect codeLine="42" fill="#FEFECE" filter="url(#f9j41zoqbjow0)" height="60.9551" id="addConfiguration" style="stroke:#A80036;stroke-width:1.5;" width="131" x="369.5" y="404"/><ellipse cx="384.5" cy="420" fill="#ADD1B2" rx="11" ry="11" style="stroke:#A80036;stroke-width:1.0;"/><path d="M386.9731,426.1431 Q386.3921,426.4419 385.7529,426.5913 Q385.1138,426.7407 384.4082,426.7407 Q381.9014,426.7407 380.5815,425.0889 Q379.2617,423.437 379.2617,420.3159 Q379.2617,417.1865 380.5815,415.5347 Q381.9014,413.8828 384.4082,413.8828 Q385.1138,413.8828 385.7612,414.0322 Q386.4087,414.1816 386.9731,414.4805 L386.9731,417.2031 Q386.3423,416.6221 385.7488,416.3523 Q385.1553,416.0825 384.5244,416.0825 Q383.1797,416.0825 382.4949,417.1492 Q381.8101,418.2158 381.8101,420.3159 Q381.8101,422.4077 382.4949,423.4744 Q383.1797,424.541 384.5244,424.541 Q385.1553,424.541 385.7488,424.2712 Q386.3423,424.0015 386.9731,423.4204 Z " fill="#000000"/><text fill="#000000" font-family="sans-serif" font-size="12" lengthAdjust="spacing" textLength="99" x="398.5" y="424.5352">addConfiguration</text><line style="stroke:#A80036;stroke-width:1.5;" x1="370.5" x2="499.5" y1="436" y2="436"/><rect fill="none" height="6" style="stroke:#C82930;stroke-width:1.0;" width="6" x="377.5" y="444"/><text fill="#000000" font-family="sans-serif" font-size="11" lengthAdjust="spacing" textLength="20" x="389.5" y="450.6348">sub</text><line style="stroke:#A80036;stroke-width:1.5;" x1="370.5" x2="499.5" y1="456.9551" y2="456.9551"/><!--MD5=[7354dbe23465494698d685a37fb80df9]
class addOneReference--><rect codeLine="49" fill="#FEFECE" filter="url(#f9j41zoqbjow0)" height="60.9551" id="addOneReference" style="stroke:#A80036;stroke-width:1.5;" width="136" x="536" y="404"/><ellipse cx="551" cy="420" fill="#ADD1B2" rx="11" ry="11" style="stroke:#A80036;stroke-width:1.0;"/><path d="M553.4731,426.1431 Q552.8921,426.4419 552.2529,426.5913 Q551.6138,426.7407 550.9082,426.7407 Q548.4014,426.7407 547.0815,425.0889 Q545.7617,423.437 545.7617,420.3159 Q545.7617,417.1865 547.0815,415.5347 Q548.4014,413.8828 550.9082,413.8828 Q551.6138,413.8828 552.2612,414.0322 Q552.9087,414.1816 553.4731,414.4805 L553.4731,417.2031 Q552.8423,416.6221 552.2488,416.3523 Q551.6553,416.0825 551.0244,416.0825 Q549.6797,416.0825 548.9949,417.1492 Q548.3101,418.2158 548.3101,420.3159 Q548.3101,422.4077 548.9949,423.4744 Q549.6797,424.541 551.0244,424.541 Q551.6553,424.541 552.2488,424.2712 Q552.8423,424.0015 553.4731,423.4204 Z " fill="#000000"/><text fill="#000000" font-family="sans-serif" font-size="12" lengthAdjust="spacing" textLength="104" x="565" y="424.5352">addOneReference</text><line style="stroke:#A80036;stroke-width:1.5;" x1="537" x2="671" y1="436" y2="436"/><rect fill="none" height="6" style="stroke:#C82930;stroke-width:1.0;" width="6" x="544" y="444"/><text fill="#000000" font-family="sans-serif" font-size="11" lengthAdjust="spacing" textLength="20" x="556" y="450.6348">sub</text><line style="stroke:#A80036;stroke-width:1.5;" x1="537" x2="671" y1="456.9551" y2="456.9551"/><!--MD5=[d6cd33b793326eddac5a4a32f94bbd27]
class configurationCount--><rect codeLine="36" fill="#FEFECE" filter="url(#f9j41zoqbjow0)" height="60.9551" id="configurationCount" style="stroke:#A80036;stroke-width:1.5;" width="139" x="469.5" y="525"/><ellipse cx="484.5" cy="541" fill="#ADD1B2" rx="11" ry="11" style="stroke:#A80036;stroke-width:1.0;"/><path d="M486.9731,547.1431 Q486.3921,547.4419 485.7529,547.5913 Q485.1138,547.7407 484.4082,547.7407 Q481.9014,547.7407 480.5815,546.0889 Q479.2617,544.437 479.2617,541.3159 Q479.2617,538.1865 480.5815,536.5347 Q481.9014,534.8828 484.4082,534.8828 Q485.1138,534.8828 485.7612,535.0322 Q486.4087,535.1816 486.9731,535.4805 L486.9731,538.2031 Q486.3423,537.6221 485.7488,537.3523 Q485.1553,537.0825 484.5244,537.0825 Q483.1797,537.0825 482.4949,538.1492 Q481.8101,539.2158 481.8101,541.3159 Q481.8101,543.4077 482.4949,544.4744 Q483.1797,545.541 484.5244,545.541 Q485.1553,545.541 485.7488,545.2712 Q486.3423,545.0015 486.9731,544.4204 Z " fill="#000000"/><text fill="#000000" font-family="sans-serif" font-size="12" lengthAdjust="spacing" textLength="107" x="498.5" y="545.5352">configurationCount</text><line style="stroke:#A80036;stroke-width:1.5;" x1="470.5" x2="607.5" y1="557" y2="557"/><rect fill="none" height="6" style="stroke:#C82930;stroke-width:1.0;" width="6" x="477.5" y="565"/><text fill="#000000" font-family="sans-serif" font-size="11" lengthAdjust="spacing" textLength="45" x="489.5" y="571.6348">function</text><line style="stroke:#A80036;stroke-width:1.5;" x1="470.5" x2="607.5" y1="577.9551" y2="577.9551"/><!--MD5=[2fe501e49219474a6c3225aecf0f058e]
class referenceCount--><rect codeLine="39" fill="#FEFECE" filter="url(#f9j41zoqbjow0)" height="60.9551" id="referenceCount" style="stroke:#A80036;stroke-width:1.5;" width="120" x="59" y="525"/><ellipse cx="74" cy="541" fill="#ADD1B2" rx="11" ry="11" style="stroke:#A80036;stroke-width:1.0;"/><path d="M76.4731,547.1431 Q75.8921,547.4419 75.2529,547.5913 Q74.6138,547.7407 73.9082,547.7407 Q71.4014,547.7407 70.0815,546.0889 Q68.7617,544.437 68.7617,541.3159 Q68.7617,538.1865 70.0815,536.5347 Q71.4014,534.8828 73.9082,534.8828 Q74.6138,534.8828 75.2612,535.0322 Q75.9087,535.1816 76.4731,535.4805 L76.4731,538.2031 Q75.8423,537.6221 75.2488,537.3523 Q74.6553,537.0825 74.0244,537.0825 Q72.6797,537.0825 71.9949,538.1492 Q71.3101,539.2158 71.3101,541.3159 Q71.3101,543.4077 71.9949,544.4744 Q72.6797,545.541 74.0244,545.541 Q74.6553,545.541 75.2488,545.2712 Q75.8423,545.0015 76.4731,544.4204 Z " fill="#000000"/><text fill="#000000" font-family="sans-serif" font-size="12" lengthAdjust="spacing" textLength="88" x="88" y="545.5352">referenceCount</text><line style="stroke:#A80036;stroke-width:1.5;" x1="60" x2="178" y1="557" y2="557"/><rect fill="none" height="6" style="stroke:#C82930;stroke-width:1.0;" width="6" x="67" y="565"/><text fill="#000000" font-family="sans-serif" font-size="11" lengthAdjust="spacing" textLength="45" x="79" y="571.6348">function</text><line style="stroke:#A80036;stroke-width:1.5;" x1="60" x2="178" y1="577.9551" y2="577.9551"/><!--MD5=[ce92dd9d4ed4d2904599f8cb8e7ab6bb]
class addReferences--><rect codeLine="45" fill="#FEFECE" filter="url(#f9j41zoqbjow0)" height="60.9551" id="addReferences" style="stroke:#A80036;stroke-width:1.5;" width="119" x="559.5" y="283"/><ellipse cx="574.5" cy="299" fill="#ADD1B2" rx="11" ry="11" style="stroke:#A80036;stroke-width:1.0;"/><path d="M576.9731,305.1431 Q576.3921,305.4419 575.7529,305.5913 Q575.1138,305.7407 574.4082,305.7407 Q571.9014,305.7407 570.5815,304.0889 Q569.2617,302.437 569.2617,299.3159 Q569.2617,296.1865 570.5815,294.5347 Q571.9014,292.8828 574.4082,292.8828 Q575.1138,292.8828 575.7612,293.0322 Q576.4087,293.1816 576.9731,293.4805 L576.9731,296.2031 Q576.3423,295.6221 575.7488,295.3523 Q575.1553,295.0825 574.5244,295.0825 Q573.1797,295.0825 572.4949,296.1492 Q571.8101,297.2158 571.8101,299.3159 Q571.8101,301.4077 572.4949,302.4744 Q573.1797,303.541 574.5244,303.541 Q575.1553,303.541 575.7488,303.2712 Q576.3423,303.0015 576.9731,302.4204 Z " fill="#000000"/><text fill="#000000" font-family="sans-serif" font-size="12" lengthAdjust="spacing" textLength="87" x="588.5" y="303.5352">addReferences</text><line style="stroke:#A80036;stroke-width:1.5;" x1="560.5" x2="677.5" y1="315" y2="315"/><rect fill="none" height="6" style="stroke:#C82930;stroke-width:1.0;" width="6" x="567.5" y="323"/><text fill="#000000" font-family="sans-serif" font-size="11" lengthAdjust="spacing" textLength="20" x="579.5" y="329.6348">sub</text><line style="stroke:#A80036;stroke-width:1.5;" x1="560.5" x2="677.5" y1="335.9551" y2="335.9551"/><!--MD5=[f9eed2d81db61df4a8c9158fdff938c5]
class allReferences--><rect codeLine="52" fill="#FEFECE" filter="url(#f9j41zoqbjow0)" height="60.9551" id="allReferences" style="stroke:#A80036;stroke-width:1.5;" width="109" x="567.5" y="162"/><ellipse cx="582.5" cy="178" fill="#ADD1B2" rx="11" ry="11" style="stroke:#A80036;stroke-width:1.0;"/><path d="M584.9731,184.1431 Q584.3921,184.4419 583.7529,184.5913 Q583.1138,184.7407 582.4082,184.7407 Q579.9014,184.7407 578.5815,183.0889 Q577.2617,181.437 577.2617,178.3159 Q577.2617,175.1865 578.5815,173.5347 Q579.9014,171.8828 582.4082,171.8828 Q583.1138,171.8828 583.7612,172.0322 Q584.4087,172.1816 584.9731,172.4805 L584.9731,175.2031 Q584.3423,174.6221 583.7488,174.3523 Q583.1553,174.0825 582.5244,174.0825 Q581.1797,174.0825 580.4949,175.1492 Q579.8101,176.2158 579.8101,178.3159 Q579.8101,180.4077 580.4949,181.4744 Q581.1797,182.541 582.5244,182.541 Q583.1553,182.541 583.7488,182.2712 Q584.3423,182.0015 584.9731,181.4204 Z " fill="#000000"/><text fill="#000000" font-family="sans-serif" font-size="12" lengthAdjust="spacing" textLength="77" x="596.5" y="182.5352">allReferences</text><line style="stroke:#A80036;stroke-width:1.5;" x1="568.5" x2="675.5" y1="194" y2="194"/><rect fill="none" height="6" style="stroke:#C82930;stroke-width:1.0;" width="6" x="575.5" y="202"/><text fill="#000000" font-family="sans-serif" font-size="11" lengthAdjust="spacing" textLength="45" x="587.5" y="208.6348">function</text><line style="stroke:#A80036;stroke-width:1.5;" x1="568.5" x2="675.5" y1="214.9551" y2="214.9551"/><!--MD5=[0e2ae78b452e9af625f2427e37fd1818]
class setReferenceWihNumber--><rect codeLine="59" fill="#FEFECE" filter="url(#f9j41zoqbjow0)" height="60.9551" id="setReferenceWihNumber" style="stroke:#A80036;stroke-width:1.5;" width="174" x="32" y="404"/><ellipse cx="47" cy="420" fill="#ADD1B2" rx="11" ry="11" style="stroke:#A80036;stroke-width:1.0;"/><path d="M49.4731,426.1431 Q48.8921,426.4419 48.2529,426.5913 Q47.6138,426.7407 46.9082,426.7407 Q44.4014,426.7407 43.0815,425.0889 Q41.7617,423.437 41.7617,420.3159 Q41.7617,417.1865 43.0815,415.5347 Q44.4014,413.8828 46.9082,413.8828 Q47.6138,413.8828 48.2612,414.0322 Q48.9087,414.1816 49.4731,414.4805 L49.4731,417.2031 Q48.8423,416.6221 48.2488,416.3523 Q47.6553,416.0825 47.0244,416.0825 Q45.6797,416.0825 44.9949,417.1492 Q44.3101,418.2158 44.3101,420.3159 Q44.3101,422.4077 44.9949,423.4744 Q45.6797,424.541 47.0244,424.541 Q47.6553,424.541 48.2488,424.2712 Q48.8423,424.0015 49.4731,423.4204 Z " fill="#000000"/><text fill="#000000" font-family="sans-serif" font-size="12" lengthAdjust="spacing" textLength="142" x="61" y="424.5352">setReferenceWihNumber</text><line style="stroke:#A80036;stroke-width:1.5;" x1="33" x2="205" y1="436" y2="436"/><rect fill="none" height="6" style="stroke:#C82930;stroke-width:1.0;" width="6" x="40" y="444"/><text fill="#000000" font-family="sans-serif" font-size="11" lengthAdjust="spacing" textLength="20" x="52" y="450.6348">sub</text><line style="stroke:#A80036;stroke-width:1.5;" x1="33" x2="205" y1="456.9551" y2="456.9551"/><!--MD5=[f2e6fb228c550023b74993dfcb7c1127]
class vtkReferenceManager.cls--><rect codeLine="2" fill="#FEFECE" filter="url(#f9j41zoqbjow0)" height="60.9551" id="vtkReferenceManager.cls" style="stroke:#A80036;stroke-width:1.5;" width="47" x="976.5" y="41"/><ellipse cx="991.5" cy="57" fill="#ADD1B2" rx="11" ry="11" style="stroke:#A80036;stroke-width:1.0;"/><path d="M993.9731,63.1431 Q993.3921,63.4419 992.7529,63.5913 Q992.1138,63.7407 991.4082,63.7407 Q988.9014,63.7407 987.5815,62.0889 Q986.2617,60.437 986.2617,57.3159 Q986.2617,54.1865 987.5815,52.5347 Q988.9014,50.8828 991.4082,50.8828 Q992.1138,50.8828 992.7612,51.0322 Q993.4087,51.1816 993.9731,51.4805 L993.9731,54.2031 Q993.3423,53.6221 992.7488,53.3523 Q992.1553,53.0825 991.5244,53.0825 Q990.1797,53.0825 989.4949,54.1492 Q988.8101,55.2158 988.8101,57.3159 Q988.8101,59.4077 989.4949,60.4744 Q990.1797,61.541 991.5244,61.541 Q992.1553,61.541 992.7488,61.2712 Q993.3423,61.0015 993.9731,60.4204 Z " fill="#000000"/><text fill="#000000" font-family="sans-serif" font-size="12" lengthAdjust="spacing" textLength="15" x="1005.5" y="61.5352">cls</text><line style="stroke:#A80036;stroke-width:1.5;" x1="977.5" x2="1022.5" y1="73" y2="73"/><rect fill="none" height="6" style="stroke:#C82930;stroke-width:1.0;" width="6" x="984.5" y="81"/><text fill="#000000" font-family="sans-serif" font-size="11" lengthAdjust="spacing" textLength="16" x="996.5" y="87.6348">file</text><line style="stroke:#A80036;stroke-width:1.5;" x1="977.5" x2="1022.5" y1="93.9551" y2="93.9551"/><!--MD5=[3e00075c6040200e791dae25b4eecdb8]
link init to references--><path codeLine="11" d="M276.02,102.04 C270.36,163.86 271.77,307.45 278.19,383.75 " fill="none" id="init-to-references" style="stroke:#A80036;stroke-width:1.0;"/><polygon fill="none" points="285.17,383.21,280.18,403.8,271.24,384.59,285.17,383.21" style="stroke:#A80036;stroke-width:1.0;"/><!--MD5=[3e00075c6040200e791dae25b4eecdb8]
link init to references--><path codeLine="13" d="M291.23,102.04 C298.99,163.86 301.59,307.45 296.97,383.75 " fill="none" id="init-to-references-1" style="stroke:#A80036;stroke-width:1.0;"/><polygon fill="none" points="303.94,384.4,295.43,403.8,289.98,383.33,303.94,384.4" style="stroke:#A80036;stroke-width:1.0;"/><!--MD5=[199fcc60a41cdbfe8c6acbe6e6ff7d5b]
link init to setReferenceSheet--><path codeLine="12" d="M307.64,94.88 C324.1,109.83 346.28,129.98 366.13,148.02 " fill="none" id="init-to-setReferenceSheet" style="stroke:#A80036;stroke-width:1.0;"/><polygon fill="none" points="370.96,142.95,381.06,161.58,361.55,153.31,370.96,142.95" style="stroke:#A80036;stroke-width:1.0;"/><!--MD5=[e6b64a87e7b1e9f823aa1083c045b8d6]
link setReferenceSheet to references--><path codeLine="17" d="M384.2,223.27 C369.01,239.75 351.22,261.26 339,283 C321.1,314.85 308.07,354.02 299.66,384.42 " fill="none" id="setReferenceSheet-to-references" style="stroke:#A80036;stroke-width:1.0;"/><polygon fill="none" points="306.41,386.29,294.58,403.86,292.86,382.74,306.41,386.29" style="stroke:#A80036;stroke-width:1.0;"/><!--MD5=[f0f2aa53c2521b9a70ac01a96d932bb1]
link setReferenceSheet to initializeReferenceSheet--><path codeLine="18" d="M420.49,223.22 C423.13,235.29 426.25,249.56 429.21,263.11 " fill="none" id="setReferenceSheet-to-initializeReferenceSheet" style="stroke:#A80036;stroke-width:1.0;"/><polygon fill="none" points="436.07,261.71,433.5,282.74,422.39,264.7,436.07,261.71" style="stroke:#A80036;stroke-width:1.0;"/><!--MD5=[fccd461146f0ee15eb3342ffccbb24ac]
link setReferenceSheet to alignConfigurationCount--><path codeLine="19" d="M483.18,209.65 C555.33,227.5 662.51,257.14 696,283 C730.29,309.47 755.51,352.09 771.32,385.23 " fill="none" id="setReferenceSheet-to-alignConfigurationCount" style="stroke:#A80036;stroke-width:1.0;"/><polygon fill="none" points="777.91,382.81,779.73,403.92,765.14,388.56,777.91,382.81" style="stroke:#A80036;stroke-width:1.0;"/><!--MD5=[11d96546fea6646499ea24250f1405dd]
link initializeReferenceSheet to references--><path codeLine="26" d="M390.83,344.22 C371.28,358.28 349.15,375.32 330.33,390.74 " fill="none" id="initializeReferenceSheet-to-references" style="stroke:#A80036;stroke-width:1.0;"/><polygon fill="none" points="334.62,396.27,314.79,403.74,325.64,385.54,334.62,396.27" style="stroke:#A80036;stroke-width:1.0;"/><!--MD5=[11d96546fea6646499ea24250f1405dd]
link initializeReferenceSheet to references--><path codeLine="28" d="M413.9,344.22 C396.44,359.31 373.08,377.83 351.12,394.09 " fill="none" id="initializeReferenceSheet-to-references-1" style="stroke:#A80036;stroke-width:1.0;"/><polygon fill="none" points="355.03,399.91,334.73,405.99,346.81,388.58,355.03,399.91" style="stroke:#A80036;stroke-width:1.0;"/><!--MD5=[a8804a3506d1ca2b826897dd87379cde]
link initializeReferenceSheet to addConfiguration--><path codeLine="27" d="M438.75,344.22 C438.25,356.15 437.66,370.23 437.1,383.63 " fill="none" id="initializeReferenceSheet-to-addConfiguration" style="stroke:#A80036;stroke-width:1.0;"/><polygon fill="none" points="444.08,384.06,436.25,403.74,430.1,383.47,444.08,384.06" style="stroke:#A80036;stroke-width:1.0;"/><!--MD5=[b1bdb3ee06b1666329421b1a99628275]
link initializeReferenceSheet to addOneReference--><path codeLine="29" d="M469.75,344.22 C488.23,358.83 512.49,376.67 535.37,392.54 " fill="none" id="initializeReferenceSheet-to-addOneReference" style="stroke:#A80036;stroke-width:1.0;"/><polygon fill="none" points="539.51,386.9,552.09,403.95,531.62,398.46,539.51,386.9" style="stroke:#A80036;stroke-width:1.0;"/><!--MD5=[b1bdb3ee06b1666329421b1a99628275]
link initializeReferenceSheet to addOneReference--><path codeLine="30" d="M492.83,344.22 C514.28,358.55 538.66,375.97 559.23,391.61 " fill="none" id="initializeReferenceSheet-to-addOneReference-1" style="stroke:#A80036;stroke-width:1.0;"/><polygon fill="none" points="563.62,386.16,575.12,403.95,555.03,397.21,563.62,386.16" style="stroke:#A80036;stroke-width:1.0;"/><!--MD5=[70ac82eb7d33eecb7b9bfc7e624108ae]
link alignConfigurationCount to configurationCount--><path codeLine="34" d="M717.19,465.07 C682.85,480.46 642.33,499.46 608.53,515.99 " fill="none" id="alignConfigurationCount-to-configurationCount" style="stroke:#A80036;stroke-width:1.0;"/><polygon fill="none" points="611.57,522.3,590.53,524.88,605.37,509.75,611.57,522.3" style="stroke:#A80036;stroke-width:1.0;"/><!--MD5=[70ac82eb7d33eecb7b9bfc7e624108ae]
link alignConfigurationCount to configurationCount--><path codeLine="35" d="M740.23,465.07 C707.7,481.36 664.85,501.7 626.96,518.86 " fill="none" id="alignConfigurationCount-to-configurationCount-1" style="stroke:#A80036;stroke-width:1.0;"/><polygon fill="none" points="629.66,525.32,608.55,527.12,623.93,512.55,629.66,525.32" style="stroke:#A80036;stroke-width:1.0;"/><!--MD5=[e1994aeb29f297d723bd4f94bae1e298]
link addReferences to addOneReference--><path codeLine="48" d="M615.25,344.22 C613.75,356.15 611.98,370.23 610.29,383.63 " fill="none" id="addReferences-to-addOneReference" style="stroke:#A80036;stroke-width:1.0;"/><polygon fill="none" points="617.2,384.78,607.75,403.74,603.31,383.03,617.2,384.78" style="stroke:#A80036;stroke-width:1.0;"/><!--MD5=[f26eb0fe5e1d5948baf387aa6b7e1fb9]
link references to configurationCount--><path codeLine="58" d="M334.62,457.6 C369.29,474.04 417.47,496.88 458.34,516.26 " fill="none" id="references-to-configurationCount" style="stroke:#A80036;stroke-width:1.0;"/><polygon fill="none" points="461.46,509.99,476.53,524.88,455.46,522.64,461.46,509.99" style="stroke:#A80036;stroke-width:1.0;"/><!--MD5=[846658ea544cf55317ffda3155f5ead6]
link setReferenceWihNumber to referenceCount--><path codeLine="62" d="M119,465.22 C119,477.15 119,491.23 119,504.63 " fill="none" id="setReferenceWihNumber-to-referenceCount" style="stroke:#A80036;stroke-width:1.0;"/><polygon fill="none" points="126,504.74,119,524.74,112,504.74,126,504.74" style="stroke:#A80036;stroke-width:1.0;"/><!--MD5=[054c4345133342f2f342cb00e6925d0a]
link setReferenceWihNumber to configurationCount--><path codeLine="63" d="M206.02,460.16 C277.4,480.38 378.05,508.9 449.97,529.27 " fill="none" id="setReferenceWihNumber-to-configurationCount" style="stroke:#A80036;stroke-width:1.0;"/><polygon fill="none" points="452.11,522.61,469.44,534.79,448.29,536.07,452.11,522.61" style="stroke:#A80036;stroke-width:1.0;"/><!--MD5=[7e07d155f903a3e6e0b6f2013edd18ba]
link Class_Terminate to selfReference--><!--MD5=[c8bf961c9bbc25a818f27da4dc9462f4]
link Class_Terminate to allReferences--><!--MD5=[ed33f3d11d011cfaaf014962e95e374d]
@startuml
file vtkReferenceManager.cls{
class vtkReferenceManager.cls {
- file
}
class Class_Terminate {
- sub
}
class init {
- sub
}
init -down-|> references
init -down-|> setReferenceSheet
init -down-|> references
class setReferenceSheet {
- sub
}
setReferenceSheet -down-|> references
setReferenceSheet -down-|> initializeReferenceSheet
setReferenceSheet -down-|> alignConfigurationCount
class selfReference {
- function
}
class initializeReferenceSheet {
- sub
}
initializeReferenceSheet -down-|> references
initializeReferenceSheet -down-|> addConfiguration
initializeReferenceSheet -down-|> references
initializeReferenceSheet -down-|> addOneReference
initializeReferenceSheet -down-|> addOneReference
class alignConfigurationCount {
- sub
}
alignConfigurationCount -down-|> configurationCount
alignConfigurationCount -down-|> configurationCount
class configurationCount {
- function
}
class referenceCount {
- function
}
class addConfiguration {
- sub
}
class addReferences {
- sub
}
addReferences -down-|> addOneReference
class addOneReference {
- sub
}
class allReferences {
- function
}
class references {
- function
}
references -down-|> configurationCount
class setReferenceWihNumber {
- sub
}
setReferenceWihNumber -down-|> referenceCount
setReferenceWihNumber -down-|> configurationCount
}
@enduml

PlantUML version 1.2021.15(Wed Dec 01 01:45:34 JST 2021)
(GPL source distribution)
Java Runtime: OpenJDK Runtime Environment
JVM: OpenJDK 64-Bit Server VM
Default Encoding: UTF-8
Language: ja
Country: JP
--></g></svg>